<?xml version="1.0" encoding="utf-8"?>
<!-- Generator: Adobe Illustrator 15.1.0, SVG Export Plug-In . SVG Version: 6.00 Build 0)  -->
<!DOCTYPE svg PUBLIC "-//W3C//DTD SVG 1.1//EN" "http://www.w3.org/Graphics/SVG/1.1/DTD/svg11.dtd">
<svg version="1.1" id="Layer_1" xmlns="http://www.w3.org/2000/svg" xmlns:xlink="http://www.w3.org/1999/xlink" x="0px" y="0px"
	 width="441px" height="272px" viewBox="0 0 441 272" enable-background="new 0 0 441 272" xml:space="preserve">
<g id="Bromelo_1_">
	<g>
		<path d="M86.731,60.506c1.136-0.699,2.165-1.115,3.083-1.247s1.378,0.416,1.378,1.64c-0.088,0-0.351,0.459-0.788,1.377
			c-0.438,0.919-0.963,2.057-1.574,3.412c-0.613,1.357-1.292,2.866-2.034,4.527c-0.744,1.663-1.423,3.237-2.034,4.724
			c-0.613,1.489-1.16,2.778-1.64,3.871c-0.482,1.095-0.767,1.771-0.853,2.034c-0.963,2.45-1.64,4.986-2.034,7.61
			c-0.394,2.624-1.203,5.117-2.427,7.479c-0.613,1.226-1.226,2.384-1.837,3.477c-0.613,1.093-1.226,2.251-1.837,3.478
			c-0.439,0.873-0.941,1.64-1.509,2.296c-0.57,0.656-1.203,1.29-1.902,1.903c-1.488,1.398-3.083,2.536-4.789,3.412
			c-1.706,0.873-3.608,1.355-5.708,1.443c-0.262,0-0.481,0.043-0.656,0.131c-2.625,1.05-5.206,1.05-7.742,0
			c-0.438-0.176-0.918-0.351-1.443-0.525c-1.925-0.438-3.565-1.181-4.92-2.23c-1.357-1.05-2.516-2.362-3.477-3.937
			c-1.138-1.925-2.122-3.871-2.952-5.839c-0.833-1.968-1.64-3.957-2.428-5.97c-1.312-3.235-2.427-6.495-3.346-9.775
			s-1.859-6.581-2.821-9.906c-0.701-2.274-1.64-4.374-2.821-6.298c-1.181-1.923-2.69-3.629-4.527-5.117
			c-0.701-0.611-1.443-1.116-2.23-1.509c-0.788-0.394-1.663-0.808-2.625-1.247l-0.394,0.788c-0.262,1.488-0.525,2.975-0.787,4.461
			c-0.263,1.489-0.482,2.975-0.656,4.461c-0.262,1.925-0.701,3.674-1.312,5.249c-0.963,2.538-1.531,5.336-1.706,8.397
			c-0.176,3.063-0.351,5.95-0.525,8.66c-0.176,2.538-0.373,5.117-0.591,7.742c-0.219,2.624-0.459,5.203-0.721,7.742
			c0,0.699-0.023,1.355-0.066,1.968c-0.045,0.611-0.111,1.267-0.197,1.968c-0.176,1.136-0.308,2.251-0.394,3.346
			c-0.088,1.093-0.176,2.208-0.263,3.346c0,0.437-0.088,0.742-0.262,0.918c-0.176,0.174-0.394,0.349-0.656,0.525
			c-0.438,0.263-0.787,0.131-1.049-0.394c-0.351-0.525-0.656-0.963-0.918-1.312c-0.088,0.699-0.394,1.07-0.918,1.115
			c-0.525,0.043-0.833,0.371-0.919,0.984c-0.963-0.701-1.793-1.423-2.493-2.165c-0.701-0.744-1.181-1.685-1.443-2.821
			c-0.964-4.638-1.509-9.382-1.64-14.237s-0.154-9.644-0.066-14.368c0-4.461-0.045-8.922-0.131-13.384
			c-0.088-4.461-0.152-8.922-0.197-13.384c-0.043-4.461,0-8.922,0.131-13.384c0.131-4.461,0.415-8.922,0.853-13.384
			c0.262-2.273,0.568-4.547,0.918-6.823c0.349-2.274,0.656-4.547,0.918-6.823c0.174-1.224,0.306-2.493,0.394-3.805
			c0.086-1.312,0.217-2.624,0.394-3.937c0.174-1.486,0.502-2.93,0.984-4.33c0.479-1.398,1.027-2.798,1.64-4.199
			C6.429,2.03,6.669,1.68,6.889,1.591c0.217-0.086,0.676-0.086,1.377,0c2.011,0.439,3.717,1.706,5.118,3.805
			c0.437,0.701,0.742,1.466,0.918,2.296c0.174,0.833,0.348,1.64,0.525,2.428l1.574,6.691l0.394,2.362
			c0.086,0.438,0.174,0.81,0.263,1.115c0.086,0.308,0.217,0.635,0.394,0.984c0.086,0.088,0.217,0.131,0.394,0.131
			c0-0.174,0.086-0.349,0.263-0.525c1.049-2.186,2.427-4.045,4.133-5.577c1.706-1.529,3.563-2.864,5.577-4.002
			c1.398-0.787,2.821-1.509,4.264-2.165c1.443-0.656,2.953-1.201,4.527-1.64c1.661-0.437,3.586-0.525,5.773-0.262
			c0.437,0.088,0.918,0.176,1.443,0.262c0.525,0.088,1.05,0.131,1.575,0.131c1.224,0,2.273,0.285,3.149,0.853
			c0.874,0.57,1.749,1.204,2.624,1.903c1.398,0.963,2.493,2.276,3.281,3.937c0.348,0.525,0.633,1.095,0.853,1.706
			c0.217,0.613,0.414,1.226,0.59,1.837c1.136,2.801,1.464,5.622,0.984,8.463c-0.482,2.844-1.204,5.665-2.165,8.463
			c-1.226,3.325-2.755,6.495-4.592,9.513c-1.837,3.018-4.156,5.665-6.955,7.938c-0.524,0.439-1.006,0.744-1.443,0.918
			c-2.013,1.138-4.067,2.188-6.167,3.149c-2.1,0.963-4.287,1.706-6.561,2.23c-0.176,0.176-0.438,0.308-0.787,0.394
			c1.575,0.963,3.018,1.882,4.33,2.755c0.874,0.701,1.706,1.378,2.493,2.034c0.787,0.656,1.618,1.335,2.493,2.034
			c0.525,0.438,1.05,0.941,1.575,1.509c0.525,0.57,1.05,1.115,1.575,1.64c0.086,0,0.174,0.045,0.262,0.131
			c1.312,1.751,2.514,3.5,3.608,5.249c1.093,1.751,1.989,3.631,2.69,5.642c0.174,0.701,0.394,1.357,0.656,1.968
			c0.263,0.613,0.48,1.269,0.656,1.968c0.086,0.262,0.131,0.613,0.131,1.049c0.174,0.701,0.349,1.335,0.525,1.903
			c0.174,0.57,0.348,1.204,0.525,1.902l1.968,6.298c0.174,0.525,0.349,1.05,0.525,1.575c0.174,0.525,0.349,1.05,0.525,1.575
			c0.174,0.524,0.306,1.049,0.394,1.574c0.086,0.525,0.086,1.05,0,1.575c0,1.575,0.568,2.798,1.706,3.674
			c0.262,0.263,0.545,0.525,0.853,0.788c0.306,0.262,0.634,0.524,0.984,0.787c0.699,0.525,1.529,0.699,2.493,0.525
			c0.174-0.088,0.48-0.131,0.919-0.131c1.049,0.086,1.945-0.111,2.689-0.59c0.742-0.482,1.464-1.072,2.165-1.771
			c2.799-3.237,4.986-6.646,6.561-10.234c2.362-5.423,4.744-10.78,7.151-16.074c2.405-5.292,4.832-10.606,7.282-15.942
			C86.292,61.47,86.555,60.857,86.731,60.506z M19.026,58.145c1.486-0.699,2.93-1.378,4.33-2.034
			c1.398-0.656,2.799-1.333,4.199-2.034c1.486-0.699,2.952-1.509,4.396-2.427s2.69-2.034,3.739-3.346
			c1.136-1.398,2.186-2.798,3.149-4.199c0.961-1.398,1.923-2.841,2.886-4.33c0.437-0.525,0.722-1.07,0.853-1.64
			c0.131-0.568,0.24-1.201,0.328-1.902c0.174-1.661,0.328-3.301,0.459-4.92c0.131-1.618,0.283-3.301,0.459-5.052
			c0.086-0.349,0.131-0.677,0.131-0.984c0-0.305,0.043-0.633,0.131-0.984c0.699-2.887,0.919-5.554,0.656-8.004
			c-0.262-1.837-0.918-3.543-1.968-5.118c-0.701-0.873-1.488-1.181-2.362-0.918c-0.525,0.176-1.05,0.308-1.574,0.394
			c-0.525,0.088-1.007,0.22-1.443,0.394c-0.875,0.351-1.729,0.701-2.559,1.049c-0.833,0.351-1.64,0.701-2.428,1.05
			c-3.412,1.575-5.993,4.024-7.741,7.348c-0.439,0.875-0.788,1.751-1.05,2.624c-0.263,0.875-0.57,1.794-0.918,2.755
			c-0.088,0.177-0.176,0.374-0.263,0.591c-0.088,0.219-0.176,0.416-0.262,0.59c-0.525,1.138-1.05,2.276-1.575,3.412
			c-0.525,1.138-1.049,2.275-1.574,3.412c-0.176,0.262-0.263,0.701-0.263,1.312c0.086,1.751,0.043,3.457-0.131,5.117
			c-0.176,1.663-0.351,3.369-0.524,5.117c-0.177,1.226-0.197,2.473-0.066,3.74c0.131,1.269,0.066,2.516-0.197,3.74
			c-0.176,0.875-0.176,1.75,0,2.624c0.174,0.875,0.306,1.794,0.394,2.755c0.174,0,0.306-0.021,0.394-0.065
			C18.718,58.167,18.85,58.145,19.026,58.145z"/>
		<path d="M101.95,42.399c0.086,0.875-0.263,1.706-1.05,2.493c-0.351,0.351-0.57,0.613-0.656,0.788
			c-0.262,0.787-0.656,1.312-1.181,1.575c-0.176,0.438-0.394,0.81-0.656,1.115c-0.262,0.308-0.482,0.635-0.656,0.984
			c-0.262,0.525-0.504,1.072-0.722,1.64c-0.219,0.57-0.416,1.204-0.59,1.903c-0.351,1.4-0.701,2.8-1.05,4.199
			c-0.351,1.4-0.744,2.8-1.181,4.199c-0.351,0.963-0.636,1.903-0.853,2.821c-0.219,0.918-0.459,1.859-0.722,2.821
			c-0.262,0.964-0.59,1.86-0.984,2.69c-0.394,0.833-0.679,1.729-0.853,2.69c0,0.088-0.088,0.308-0.262,0.656
			c-0.525,0.701-0.853,1.466-0.984,2.296c-0.131,0.833-0.154,1.686-0.065,2.559c0.086,0.964,0.152,1.882,0.197,2.756
			c0.043,0.875,0.152,1.793,0.328,2.755c0,0.613,0.305,1.138,0.918,1.574c0.262,0.263,0.545,0.525,0.853,0.788
			c0.305,0.262,0.59,0.525,0.853,0.787c0.611,0.525,1.267,0.656,1.968,0.394c1.136-0.437,2.23-0.83,3.28-1.181
			c1.05-0.349,2.054-0.918,3.018-1.706c0.437-0.348,0.939-0.676,1.509-0.984c0.568-0.306,1.07-0.677,1.509-1.115
			c0.349-0.174,0.634-0.394,0.853-0.656c0.217-0.262,0.459-0.525,0.722-0.787c1.136-1.136,2.054-2.274,2.755-3.412
			c0.086-0.086,0.131-0.174,0.131-0.262c0.262-0.788,0.656-1.53,1.181-2.231c0.086-0.174,0.131-0.328,0.131-0.459
			c0-0.131,0.043-0.283,0.131-0.459c-0.439-0.174-0.833-0.394-1.181-0.656c-0.351-0.263-0.744-0.525-1.181-0.788
			c-2.362-1.575-4.287-3.323-5.773-5.249c-0.351-0.437-0.679-0.896-0.984-1.377c-0.308-0.48-0.591-0.939-0.853-1.378
			c-0.875-1.661-1.378-3.323-1.509-4.986c-0.131-1.661,0.021-3.366,0.459-5.117c0.174-1.05,0.48-2.034,0.918-2.952
			c0.437-0.918,0.874-1.857,1.312-2.821l0.131-0.262c0.525-0.174,0.961-0.48,1.312-0.918c0.349-0.437,0.831-0.699,1.443-0.788
			c0.349,0,0.874-0.086,1.575-0.262c0.961-0.174,1.792-0.086,2.493,0.262c0.699,0.351,1.443,0.745,2.23,1.181
			c0.961,0.525,1.946,1.072,2.952,1.64c1.005,0.57,1.771,1.378,2.296,2.427c0.437,0.875,0.787,1.706,1.05,2.493
			c0.262,0.788,0.394,1.663,0.394,2.625c0.086,0.438,0.152,0.81,0.197,1.115c0.043,0.308,0.108,0.635,0.197,0.984
			c0.174,0.788,0.283,1.64,0.328,2.559c0.043,0.918,0.021,1.771-0.066,2.559c-0.088,0.701-0.285,1.312-0.59,1.837
			c-0.308,0.525-0.504,1.095-0.59,1.706c-0.176,0.439-0.263,0.875-0.263,1.312c0,0.439-0.088,0.918-0.262,1.443
			c0.174,0,0.328,0.045,0.459,0.131c0.131,0.088,0.283,0.131,0.459,0.131c0.437,0,0.874-0.021,1.312-0.066
			c0.437-0.043,0.874-0.108,1.313-0.197c2.624-0.437,5.138-1.355,7.544-2.755c2.405-1.398,4.57-3.018,6.495-4.855
			c0.262-0.262,0.479-0.568,0.656-0.918c0.174-0.174,0.283-0.328,0.328-0.459c0.043-0.131,0.152-0.24,0.328-0.328
			c0.699-0.174,1.181-0.174,1.443,0c0.787,0.262,1.312,0.613,1.575,1.05c-0.177,0.525-0.613,1.203-1.313,2.034
			c-0.701,0.833-1.466,1.64-2.296,2.427c-0.833,0.788-1.686,1.489-2.559,2.1c-0.875,0.613-1.532,1.006-1.968,1.181
			c-1.226,0.439-2.362,0.984-3.412,1.64c-1.05,0.656-2.188,1.204-3.412,1.641c-1.049,0.438-2.056,0.767-3.018,0.984
			c-0.964,0.219-2.013,0.242-3.149,0.065c-0.438-0.174-0.898-0.197-1.377-0.065c-0.482,0.131-0.941,0.242-1.378,0.328
			c-0.525,0.088-0.963,0.57-1.312,1.443c-0.351,0.613-0.656,1.226-0.918,1.837c-0.262,0.613-0.525,1.269-0.787,1.968
			c-0.439,0.963-1.05,1.751-1.837,2.362c-0.788,0.613-1.443,1.312-1.968,2.099c-0.439,0.525-0.875,1.072-1.313,1.64
			c-0.438,0.57-0.918,1.029-1.443,1.378c-0.613,0.439-1.161,0.875-1.64,1.312c-0.482,0.439-1.029,0.875-1.641,1.312
			c-0.787,0.439-1.574,0.898-2.361,1.378c-0.788,0.482-1.663,0.679-2.625,0.59c-0.963-0.086-1.925-0.371-2.887-0.853
			c-0.963-0.48-1.882-0.939-2.755-1.378c-1.751-0.961-3.455-2.186-5.117-3.674c-1.661-1.486-2.973-3.104-3.937-4.855
			c-0.437-0.961-0.765-1.968-0.984-3.018c-0.217-1.049-0.371-2.099-0.459-3.149c-0.174-1.224-0.283-2.405-0.328-3.543
			c-0.043-1.136-0.021-2.316,0.065-3.542c0.262-2.1,0.744-4.285,1.443-6.561c0.525-1.575,1.115-3.104,1.771-4.593
			c0.656-1.486,1.334-2.973,2.034-4.461c0.351-0.874,0.918-1.706,1.706-2.493c0.439-0.437,0.853-0.918,1.247-1.443
			s0.808-1.05,1.247-1.575c0.437-0.437,0.896-0.808,1.377-1.115c0.48-0.306,0.939-0.633,1.378-0.984
			c0.699-0.525,1.421-1.005,2.165-1.443c0.742-0.437,1.509-0.918,2.296-1.443c0.524-0.349,1.181-0.48,1.968-0.394
			C99.588,41.263,100.812,41.7,101.95,42.399z M111.003,69.429c0.263-0.349,0.502-0.677,0.722-0.984
			c0.217-0.306,0.283-0.677,0.197-1.116c0-0.348,0.043-0.611,0.131-0.787c0.525-0.611,0.853-1.398,0.984-2.362
			c0.131-0.961,0.151-1.792,0.065-2.493c-0.088-0.961-0.154-2.034-0.197-3.215c-0.045-1.181-0.328-2.251-0.853-3.214
			c-0.351-0.525-0.679-1.05-0.984-1.575c-0.308-0.525-0.547-1.136-0.722-1.837v-0.131c-0.176-0.086-0.285-0.174-0.328-0.262
			c-0.045-0.086-0.154-0.131-0.328-0.131c-0.351,0-0.57,0.176-0.656,0.525c-0.088,0.176-0.154,0.394-0.197,0.656
			c-0.045,0.262-0.153,0.481-0.328,0.656c-0.613,1.312-1.05,2.755-1.313,4.33c0,0.176-0.088,0.439-0.262,0.787
			c-0.787,1.663-0.918,3.326-0.394,4.986c0.525,1.751,1.312,3.28,2.362,4.592c0.349,0.351,0.676,0.679,0.984,0.984
			C110.193,69.146,110.564,69.343,111.003,69.429z"/>
		<path d="M178.97,57.882c-0.701,2.975-1.423,5.927-2.165,8.857c-0.744,2.932-1.423,5.927-2.034,8.988
			c-0.613,3.063-1.029,6.167-1.247,9.316c-0.219,3.149-0.416,6.255-0.59,9.316c-0.088,0.613-0.154,1.181-0.197,1.706
			c-0.045,0.525-0.022,1.095,0.065,1.706c0,0.263-0.088,0.57-0.262,0.918c0,0.263,0.021,0.459,0.065,0.591
			c0.043,0.131,0.197,0.373,0.459,0.722l0.394-0.394c0.174-0.174,0.283-0.306,0.328-0.394c0.043-0.086,0.151-0.217,0.328-0.394
			c0.788-1.224,1.575-2.448,2.362-3.674c0.788-1.224,1.53-2.448,2.231-3.674c0.961-1.749,1.88-3.455,2.755-5.118
			c0.873-1.661,1.749-3.366,2.624-5.117c0.699-1.398,1.575-2.798,2.625-4.199c0.525-0.699,1.004-1.464,1.443-2.296
			c0.437-0.83,0.873-1.64,1.312-2.427c0.437-0.699,0.808-1.378,1.115-2.034c0.306-0.656,0.677-1.333,1.115-2.034
			c0.263-0.437,0.525-0.873,0.787-1.312c0.263-0.437,0.525-0.874,0.788-1.312c0.174-0.437,0.394-0.831,0.656-1.181
			c0.263-0.348,0.48-0.742,0.656-1.181c0.174-0.437,0.371-0.831,0.59-1.181c0.217-0.348,0.414-0.699,0.59-1.049
			c0.437-0.525,1.005-0.611,1.706-0.263c-0.176,0.263-0.308,0.525-0.394,0.787c-0.088,0.263-0.22,0.525-0.394,0.788
			c-0.263,0.438-0.417,0.875-0.459,1.312c-0.045,0.439-0.111,0.875-0.197,1.312v0.656c-0.176,1.138-0.482,2.188-0.918,3.149
			c-0.351,0.788-0.636,1.575-0.853,2.362c-0.219,0.788-0.547,1.532-0.984,2.231c-0.351,0.701-0.679,1.357-0.984,1.968
			c-0.307,0.613-0.678,1.226-1.115,1.837c-1.05,1.75-2.013,3.542-2.887,5.379c-0.875,1.837-1.794,3.631-2.755,5.38
			c-1.05,2.013-2.079,4.047-3.083,6.102c-1.006,2.056-2.253,4.002-3.739,5.839c-1.489,1.749-3.369,3.258-5.642,4.527
			c-2.276,1.267-4.593,1.683-6.955,1.247c-1.488-0.351-2.581-1.312-3.28-2.887c-0.176-0.525-0.373-1.05-0.59-1.575
			c-0.219-0.525-0.373-1.095-0.459-1.706c-0.525-2.887-0.788-5.816-0.788-8.792v-3.412c0.263-4.81,0.918-9.665,1.968-14.564
			c0.174-0.961,0.349-1.946,0.525-2.952c0.174-1.005,0.349-1.989,0.525-2.953c0.174-1.224,0.371-2.493,0.59-3.805
			c0.217-1.312,0.414-2.579,0.59-3.805c0.174-0.961,0.349-1.945,0.525-2.952c0.174-1.004,0.349-1.989,0.525-2.952
			c0.174-1.224,0.349-2.382,0.525-3.477c0.174-1.093,0.262-2.251,0.262-3.478v-0.656c-0.701,0.262-1.269,0.57-1.706,0.918
			c-0.176,0.088-0.351,0.308-0.525,0.656c-0.176,0.176-0.308,0.394-0.394,0.656c-0.088,0.263-0.219,0.482-0.394,0.656
			c-0.176,0.176-0.285,0.328-0.328,0.459c-0.045,0.131-0.154,0.285-0.328,0.459c-0.963,0.613-1.751,1.509-2.362,2.69
			c-0.613,1.181-1.226,2.253-1.837,3.214c-0.787,1.226-1.62,2.407-2.493,3.543c-0.875,1.138-1.75,2.319-2.624,3.543
			c-0.787,1.138-1.488,2.296-2.1,3.477c-0.613,1.181-1.226,2.384-1.837,3.608c-0.525,1.138-1.095,2.253-1.706,3.346
			c-0.613,1.095-1.138,2.21-1.575,3.346c0,0.088-0.045,0.131-0.131,0.131c-0.439,0.439-0.722,0.941-0.853,1.509
			c-0.131,0.57-0.285,1.16-0.459,1.771c-0.088,0.439-0.219,0.833-0.394,1.181c-0.176,0.351-0.351,0.701-0.525,1.05
			c-0.176,0.438-0.351,0.832-0.525,1.181c-0.176,0.351-0.176,0.744,0,1.181c0,0.176-0.088,0.438-0.262,0.787
			c-0.176,0.439-0.394,0.898-0.656,1.378c-0.262,0.481-0.525,0.984-0.787,1.509c-0.262,0.439-0.656,0.613-1.181,0.525
			c-0.525-0.174-1.05-0.086-1.575,0.262c-0.263,0.263-0.439,0.394-0.525,0.394c-0.525-0.086-0.984-0.021-1.378,0.197
			c-0.394,0.219-0.81,0.416-1.246,0.59c-0.701,0.351-1.357,0.482-1.968,0.394c-0.611-0.086-1.267-0.217-1.968-0.394
			c-0.437-0.086-0.831-0.525-1.181-1.312c-0.086-0.263-0.131-0.525-0.131-0.788c0-0.262-0.043-0.525-0.131-0.787
			c-0.086-0.699-0.152-1.333-0.197-1.902c-0.043-0.568-0.065-1.202-0.065-1.903c0-0.611-0.043-1.05-0.131-1.312
			c0-0.174,0.022-0.371,0.065-0.59c0.045-0.218,0.022-0.415-0.065-0.591c-0.174-1.136-0.263-2.251-0.263-3.346
			c0-1.093,0-2.208,0-3.346c0-0.525-0.043-0.918-0.131-1.181c-0.086-0.699-0.131-1.443-0.131-2.231c0-0.787,0-1.574,0-2.362v-3.149
			c-0.086-1.136-0.131-2.23-0.131-3.28s0-2.143,0-3.28c0-0.437,0-0.808,0-1.115c0-0.306-0.043-0.677-0.131-1.115v-0.919
			c0.177-1.749,0.308-3.542,0.394-5.379c0.088-1.837,0.219-3.674,0.394-5.511c0.088-1.049,0.176-2.12,0.262-3.214
			c0.088-1.093,0.22-2.165,0.394-3.215c0.088-0.437,0.176-0.896,0.263-1.378c0.088-0.479,0.219-0.939,0.394-1.377
			c0.088-0.611,0.525-1.005,1.312-1.181c1.749-0.262,3.323-0.043,4.724,0.656c0.174,0,0.263,0.088,0.263,0.262
			c0.174,0.351,0.414,0.613,0.722,0.788c0.305,0.176,0.59,0.351,0.853,0.524c0.086,0.263,0.174,0.547,0.263,0.853
			c0.086,0.308,0.174,0.59,0.262,0.853l0.263,0.262c1.049,0.525,1.661,1.443,1.837,2.755c0,0.788-0.022,1.597-0.066,2.428
			c-0.045,0.833,0.066,1.64,0.328,2.427c0.174,0.701,0.394,1.378,0.656,2.034c0.262,0.656,0.305,1.334,0.131,2.034
			c-0.088,0.963-0.154,1.859-0.197,2.69c-0.045,0.832-0.153,1.685-0.328,2.559c-0.176,1.05-0.328,2.079-0.459,3.083
			c-0.131,1.006-0.154,2.034-0.065,3.083c0,0.438,0.065,0.832,0.197,1.181c0.131,0.351,0.197,0.744,0.197,1.181
			c0,0.438-0.045,0.898-0.131,1.377c-0.088,0.482-0.088,0.941,0,1.378c0.086,1.226,0.086,2.407,0,3.543c0,0.524,0,1.029,0,1.509
			c0,0.482,0.043,0.984,0.131,1.509c0.262,0,0.414-0.065,0.459-0.197c0.043-0.131,0.109-0.283,0.197-0.459
			c0.524-0.962,1.027-1.946,1.509-2.953c0.479-1.004,0.984-1.989,1.509-2.952c0.174-0.349,0.328-0.656,0.459-0.918
			c0.131-0.263,0.283-0.568,0.459-0.918c0.174-0.349,0.437-0.961,0.787-1.837c0.174-0.437,0.371-0.918,0.591-1.443
			c0.217-0.525,0.459-1.005,0.722-1.443c0.262-0.349,0.568-0.874,0.918-1.575l4.33-7.873c0.437-0.699,0.853-1.378,1.246-2.034
			c0.394-0.656,0.808-1.333,1.247-2.034c0.437-0.699,0.896-1.377,1.378-2.034c0.479-0.656,0.939-1.333,1.377-2.034
			c1.05-1.313,2.011-2.362,2.887-3.149c1.837-1.661,4.111-2.405,6.823-2.23h3.149c0.961-0.086,1.88,0.219,2.755,0.918
			c0.437,0.439,0.853,0.853,1.247,1.247s0.808,0.81,1.247,1.247c0.525,0.701,0.742,1.226,0.656,1.575
			c-0.088,0.438-0.088,0.81,0,1.115c0.086,0.308,0.217,0.679,0.394,1.115c0.437,1.312,0.676,2.932,0.722,4.855
			c0.043,1.925-0.022,3.631-0.197,5.117c-0.088,0.613-0.176,1.226-0.263,1.837C179.276,56.658,179.145,57.271,178.97,57.882z"/>
		<path d="M239.326,57.882c-0.701,2.975-1.423,5.927-2.165,8.857c-0.744,2.932-1.423,5.927-2.034,8.988
			c-0.612,3.063-1.028,6.167-1.246,9.316c-0.22,3.149-0.416,6.255-0.591,9.316c-0.088,0.613-0.153,1.181-0.196,1.706
			c-0.045,0.525-0.022,1.095,0.065,1.706c0,0.263-0.088,0.57-0.263,0.918c0,0.263,0.021,0.459,0.066,0.591
			c0.043,0.131,0.196,0.373,0.459,0.722l0.394-0.394c0.174-0.174,0.283-0.306,0.328-0.394c0.043-0.086,0.151-0.217,0.328-0.394
			c0.787-1.224,1.574-2.448,2.361-3.674c0.787-1.224,1.529-2.448,2.23-3.674c0.962-1.749,1.88-3.455,2.756-5.118
			c0.873-1.661,1.749-3.366,2.624-5.117c0.699-1.398,1.574-2.798,2.624-4.199c0.525-0.699,1.005-1.464,1.443-2.296
			c0.437-0.83,0.874-1.64,1.313-2.427c0.437-0.699,0.808-1.378,1.115-2.034c0.306-0.656,0.677-1.333,1.115-2.034
			c0.263-0.437,0.524-0.873,0.787-1.312c0.263-0.437,0.525-0.874,0.787-1.312c0.175-0.437,0.394-0.831,0.656-1.181
			c0.263-0.348,0.479-0.742,0.656-1.181c0.174-0.437,0.371-0.831,0.591-1.181c0.217-0.348,0.414-0.699,0.59-1.049
			c0.437-0.525,1.005-0.611,1.706-0.263c-0.177,0.263-0.308,0.525-0.394,0.787c-0.088,0.263-0.22,0.525-0.394,0.788
			c-0.263,0.438-0.416,0.875-0.46,1.312c-0.045,0.439-0.11,0.875-0.196,1.312v0.656c-0.177,1.138-0.481,2.188-0.919,3.149
			c-0.351,0.788-0.635,1.575-0.853,2.362c-0.22,0.788-0.547,1.532-0.984,2.231c-0.351,0.701-0.679,1.357-0.983,1.968
			c-0.308,0.613-0.679,1.226-1.115,1.837c-1.05,1.75-2.014,3.542-2.887,5.379c-0.876,1.837-1.794,3.631-2.756,5.38
			c-1.05,2.013-2.079,4.047-3.083,6.102c-1.007,2.056-2.254,4.002-3.74,5.839c-1.488,1.749-3.368,3.258-5.642,4.527
			c-2.276,1.267-4.593,1.683-6.954,1.247c-1.488-0.351-2.581-1.312-3.28-2.887c-0.177-0.525-0.373-1.05-0.591-1.575
			c-0.22-0.525-0.373-1.095-0.459-1.706c-0.525-2.887-0.787-5.816-0.787-8.792v-3.412c0.262-4.81,0.918-9.665,1.968-14.564
			c0.174-0.961,0.349-1.946,0.524-2.952c0.175-1.005,0.349-1.989,0.525-2.953c0.174-1.224,0.371-2.493,0.591-3.805
			c0.217-1.312,0.414-2.579,0.59-3.805c0.175-0.961,0.349-1.945,0.525-2.952c0.174-1.004,0.348-1.989,0.524-2.952
			c0.174-1.224,0.349-2.382,0.524-3.477c0.175-1.093,0.263-2.251,0.263-3.478v-0.656c-0.701,0.262-1.269,0.57-1.705,0.918
			c-0.177,0.088-0.351,0.308-0.525,0.656c-0.176,0.176-0.308,0.394-0.394,0.656c-0.088,0.263-0.22,0.482-0.394,0.656
			c-0.177,0.176-0.285,0.328-0.328,0.459c-0.045,0.131-0.153,0.285-0.328,0.459c-0.964,0.613-1.751,1.509-2.361,2.69
			c-0.613,1.181-1.227,2.253-1.837,3.214c-0.787,1.226-1.62,2.407-2.493,3.543c-0.875,1.138-1.75,2.319-2.624,3.543
			c-0.787,1.138-1.488,2.296-2.1,3.477c-0.613,1.181-1.226,2.384-1.837,3.608c-0.525,1.138-1.095,2.253-1.706,3.346
			c-0.613,1.095-1.138,2.21-1.575,3.346c0,0.088-0.045,0.131-0.131,0.131c-0.439,0.439-0.722,0.941-0.853,1.509
			c-0.131,0.57-0.285,1.16-0.459,1.771c-0.088,0.439-0.219,0.833-0.394,1.181c-0.176,0.351-0.351,0.701-0.525,1.05
			c-0.176,0.438-0.351,0.832-0.525,1.181c-0.176,0.351-0.176,0.744,0,1.181c0,0.176-0.088,0.438-0.262,0.787
			c-0.176,0.439-0.394,0.898-0.656,1.378c-0.262,0.481-0.525,0.984-0.787,1.509c-0.262,0.439-0.656,0.613-1.181,0.525
			c-0.525-0.174-1.05-0.086-1.575,0.262c-0.263,0.263-0.439,0.394-0.525,0.394c-0.525-0.086-0.984-0.021-1.378,0.197
			c-0.394,0.219-0.81,0.416-1.246,0.59c-0.701,0.351-1.357,0.482-1.968,0.394c-0.611-0.086-1.267-0.217-1.968-0.394
			c-0.437-0.086-0.831-0.525-1.181-1.312c-0.086-0.263-0.131-0.525-0.131-0.788c0-0.262-0.043-0.525-0.131-0.787
			c-0.086-0.699-0.152-1.333-0.197-1.902c-0.043-0.568-0.065-1.202-0.065-1.903c0-0.611-0.043-1.05-0.131-1.312
			c0-0.174,0.022-0.371,0.065-0.59c0.045-0.218,0.022-0.415-0.065-0.591c-0.174-1.136-0.263-2.251-0.263-3.346
			c0-1.093,0-2.208,0-3.346c0-0.525-0.043-0.918-0.131-1.181c-0.086-0.699-0.131-1.443-0.131-2.231c0-0.787,0-1.574,0-2.362v-3.149
			c-0.086-1.136-0.131-2.23-0.131-3.28s0-2.143,0-3.28c0-0.437,0-0.808,0-1.115c0-0.306-0.043-0.677-0.131-1.115v-0.919
			c0.177-1.749,0.308-3.542,0.394-5.379c0.088-1.837,0.219-3.674,0.394-5.511c0.088-1.049,0.176-2.12,0.262-3.214
			c0.088-1.093,0.22-2.165,0.394-3.215c0.088-0.437,0.176-0.896,0.263-1.378c0.088-0.479,0.219-0.939,0.394-1.377
			c0.088-0.611,0.525-1.005,1.312-1.181c1.749-0.262,3.323-0.043,4.724,0.656c0.174,0,0.263,0.088,0.263,0.262
			c0.174,0.351,0.414,0.613,0.722,0.788c0.305,0.176,0.59,0.351,0.853,0.524c0.086,0.263,0.174,0.547,0.263,0.853
			c0.086,0.308,0.174,0.59,0.262,0.853l0.263,0.262c1.049,0.525,1.661,1.443,1.837,2.755c0,0.788-0.022,1.597-0.066,2.428
			c-0.045,0.833,0.066,1.64,0.328,2.427c0.174,0.701,0.394,1.378,0.656,2.034c0.262,0.656,0.305,1.334,0.131,2.034
			c-0.088,0.963-0.154,1.859-0.197,2.69c-0.045,0.832-0.153,1.685-0.328,2.559c-0.176,1.05-0.328,2.079-0.459,3.083
			c-0.131,1.006-0.154,2.034-0.065,3.083c0,0.438,0.065,0.832,0.197,1.181c0.131,0.351,0.197,0.744,0.197,1.181
			c0,0.438-0.045,0.898-0.131,1.377c-0.088,0.482-0.088,0.941,0,1.378c0.086,1.226,0.086,2.407,0,3.543c0,0.524,0,1.029,0,1.509
			c0,0.482,0.043,0.984,0.131,1.509c0.262,0,0.414-0.065,0.459-0.197c0.043-0.131,0.109-0.283,0.197-0.459
			c0.524-0.962,1.027-1.946,1.509-2.953c0.479-1.004,0.984-1.989,1.509-2.952c0.174-0.349,0.328-0.656,0.459-0.918
			c0.131-0.263,0.283-0.568,0.459-0.918c0.174-0.349,0.437-0.961,0.787-1.837c0.174-0.437,0.371-0.918,0.591-1.443
			c0.217-0.525,0.459-1.005,0.722-1.443c0.262-0.349,0.568-0.874,0.918-1.575l4.33-7.873c0.437-0.699,0.853-1.378,1.246-2.034
			c0.394-0.656,0.808-1.333,1.247-2.034c0.437-0.699,0.896-1.377,1.378-2.034c0.479-0.656,0.939-1.333,1.377-2.034
			c1.05-1.313,2.011-2.362,2.887-3.149c1.837-1.661,4.11-2.405,6.822-2.23h3.149c0.962-0.086,1.88,0.219,2.756,0.918
			c0.437,0.439,0.853,0.853,1.246,1.247s0.808,0.81,1.247,1.247c0.524,0.701,0.742,1.226,0.655,1.575
			c-0.088,0.438-0.088,0.81,0,1.115c0.087,0.308,0.218,0.679,0.394,1.115c0.438,1.312,0.677,2.932,0.722,4.855
			c0.043,1.925-0.022,3.631-0.196,5.117c-0.088,0.613-0.177,1.226-0.263,1.837C239.632,56.658,239.5,57.271,239.326,57.882z"/>
		<path d="M285.643,60.506c0.525,0.525,0.788,1.049,0.788,1.574c-0.177,0.439-0.285,0.81-0.328,1.116
			c-0.045,0.307-0.111,0.59-0.197,0.853c-0.438,0.701-0.744,1.357-0.918,1.968c-0.177,0.613-0.439,1.269-0.788,1.968
			c-0.176,0.439-0.394,0.875-0.655,1.312c-0.351,0.263-0.591,0.57-0.722,0.918c-0.132,0.351-0.285,0.744-0.46,1.181
			c-0.176,0.176-0.284,0.373-0.327,0.59c-0.046,0.219-0.154,0.459-0.328,0.722c-0.177,0.439-0.351,0.81-0.525,1.115
			c-0.176,0.308-0.308,0.679-0.394,1.115c-0.088,0.176-0.196,0.394-0.328,0.656c-0.131,0.262-0.242,0.482-0.328,0.656
			c-0.438,0.963-0.853,1.925-1.246,2.887c-0.394,0.963-0.722,1.968-0.984,3.018l-0.263,0.131c-0.351,0.525-0.655,1.029-0.918,1.509
			c-0.263,0.482-0.613,0.984-1.05,1.509c-0.438,0.787-1.072,1.466-1.902,2.034c-0.833,0.57-1.641,1.16-2.428,1.771
			c-0.438,0.438-0.918,0.81-1.443,1.115c-0.524,0.308-1.05,0.547-1.574,0.722c-0.177,0-0.351,0.088-0.525,0.262
			c-0.612,0.176-1.203,0.285-1.771,0.328c-0.569,0.045-1.071,0.154-1.509,0.328c-0.963,0.176-1.662,0.131-2.099-0.131
			c-0.701-0.262-1.378-0.479-2.034-0.656c-0.656-0.174-1.292-0.394-1.902-0.656c-0.964-0.437-1.751-0.984-2.362-1.64
			c-0.612-0.656-1.138-1.421-1.574-2.296c-0.437-0.961-0.722-1.902-0.853-2.821c-0.132-0.919-0.283-1.858-0.46-2.821
			c-0.174-0.961-0.239-1.923-0.196-2.887c0.045-0.961,0.065-1.923,0.065-2.887c-0.086-1.05-0.108-2.12-0.065-3.215
			c0.045-1.093,0.065-2.208,0.065-3.346c-0.086-3.586,0.045-7.217,0.394-10.891c0.177-0.961,0.285-1.88,0.328-2.755
			c0.045-0.874,0.153-1.792,0.328-2.756c0.088-0.961,0.196-1.857,0.328-2.69c0.131-0.83,0.285-1.726,0.459-2.689
			c0.263-0.788,0.524-1.552,0.787-2.296c0.263-0.742,0.525-1.552,0.787-2.427c0.087-0.349,0.394-0.525,0.919-0.525
			c0.524,0.088,1.027,0.131,1.509,0.131c0.479,0,0.939,0.131,1.378,0.394c0.61,0.262,1.05,0.613,1.312,1.049
			c0.175,0.439,0.349,0.788,0.525,1.05c0.174,0.263,0.349,0.613,0.524,1.05c0.086,0.176,0.175,0.373,0.263,0.59
			c0.086,0.219,0.131,0.417,0.131,0.59c0.087,0.613,0.132,1.204,0.132,1.771c0,0.57,0.086,1.161,0.262,1.771
			c0.175,1.226,0.218,2.384,0.132,3.477c-0.088,1.095-0.132,2.21-0.132,3.346c0.175,0.963,0.132,1.882-0.131,2.755
			c-0.088,0.262-0.11,0.525-0.065,0.787c0.043,0.263,0.065,0.525,0.065,0.788c0.086,0.701,0.131,1.312,0.131,1.837
			s-0.088,1.138-0.262,1.837c-0.177,0.787-0.263,1.554-0.263,2.296c0,0.744-0.045,1.597-0.131,2.559v1.706l-0.263,0.263
			c0.174,0.787,0.196,1.531,0.065,2.23c-0.131,0.701-0.242,1.4-0.328,2.099c0.086,0.177,0.108,0.328,0.065,0.459
			c-0.045,0.131-0.065,0.242-0.065,0.328c0.175,0.438,0.263,0.853,0.263,1.247c0,0.394,0,0.767,0,1.115
			c-0.088,0.438-0.154,0.853-0.197,1.247c-0.045,0.394-0.022,0.81,0.066,1.247c0.262,1.312,0.348,2.581,0.262,3.805
			c0.086,1.049,0.394,2.013,0.919,2.887c0.086,0.176,0.306,0.262,0.656,0.262c0.61,0,1.05-0.043,1.312-0.131
			c0.525-0.174,0.984-0.437,1.378-0.787c0.394-0.349,0.808-0.699,1.246-1.05c0.263-0.262,0.525-0.525,0.788-0.787
			c0.262-0.263,0.479-0.568,0.655-0.918c1.05-1.224,2.055-2.471,3.019-3.74c0.961-1.267,1.837-2.602,2.624-4.002
			c0.263-0.699,0.567-1.312,0.918-1.837c0.349-0.525,0.656-1.136,0.919-1.837c0.437-0.611,0.808-1.224,1.115-1.837
			c0.306-0.611,0.634-1.313,0.984-2.1c0.437-0.961,0.853-1.857,1.246-2.69c0.394-0.83,0.765-1.771,1.115-2.821
			c0.086-0.349,0.218-0.634,0.394-0.853c0.175-0.217,0.349-0.545,0.525-0.984C283.104,61.208,284.154,60.683,285.643,60.506z
			 M255.202,28.49c0.262-0.086,0.502-0.174,0.722-0.262c0.217-0.086,0.502-0.131,0.853-0.131c0.263-0.174,0.437-0.174,0.524,0
			c0.263,0.088,0.568,0.111,0.919,0.065c0.349-0.043,0.699-0.065,1.05-0.065c1.574-0.263,2.755,0.219,3.543,1.443
			c-0.177,0.787-0.328,1.574-0.46,2.362c-0.131,0.787-0.328,1.574-0.59,2.362c-0.525,0.525-0.919,0.963-1.181,1.312
			c-0.089,0-0.177,0.045-0.263,0.131c-0.438,0-0.919,0-1.443,0c-0.525,0-1.007-0.217-1.443-0.656
			c-0.701-0.699-1.138-1.267-1.313-1.706c-0.701-0.874-1.007-1.792-0.918-2.755c0.086-0.349,0.086-0.699,0-1.05
			C255.113,29.191,255.113,28.841,255.202,28.49z"/>
		<path d="M323.692,60.244c0.086,0.176,0.349,0.482,0.787,0.918c-0.176,0.525-0.351,0.875-0.524,1.05
			c-0.964,1.226-1.794,2.669-2.493,4.33c-0.177,0.176-0.263,0.351-0.263,0.525c0,0.787-0.22,1.466-0.656,2.034
			c-0.438,0.57-0.744,1.204-0.918,1.903c-0.438,0.438-0.767,0.963-0.984,1.574c-0.22,0.613-0.547,1.181-0.984,1.706
			c-0.963,1.226-1.837,2.493-2.624,3.805s-1.597,2.624-2.428,3.936c-0.832,1.313-1.75,2.559-2.755,3.74
			c-1.007,1.181-2.165,2.253-3.478,3.215c-1.05,0.787-2.099,1.597-3.148,2.427c-1.05,0.833-2.122,1.575-3.215,2.231
			c-1.095,0.656-2.253,1.181-3.478,1.574c-1.226,0.394-2.538,0.547-3.937,0.459c-0.963-0.086-1.925-0.283-2.886-0.59
			c-0.964-0.306-1.926-0.591-2.887-0.853l-0.525-0.263c-0.787-0.524-1.531-1.07-2.23-1.64c-0.699-0.568-1.355-1.247-1.968-2.034
			c-1.575-2.362-2.448-5.072-2.625-8.135c-0.086-1.749-0.108-3.432-0.065-5.052c0.045-1.618,0.154-3.301,0.328-5.052
			c0.177-1.049,0.308-2.12,0.394-3.214c0.088-1.093,0.177-2.165,0.263-3.215c0-0.263,0.022-0.502,0.065-0.722
			c0.045-0.217,0.11-0.459,0.197-0.722c0.262-1.05,0.504-2.1,0.722-3.149c0.219-1.05,0.416-2.143,0.59-3.281
			c0.351-1.398,0.767-2.733,1.247-4.002c0.481-1.267,0.983-2.559,1.509-3.871c0.086-0.174,0.174-0.349,0.263-0.525
			c0.086-0.174,0.174-0.349,0.262-0.525c0.437-0.437,0.765-0.873,0.984-1.312c0.217-0.437,0.414-0.874,0.591-1.312
			c0-0.086,0.021-0.152,0.065-0.197c0.043-0.043,0.065-0.109,0.065-0.197c0.263-0.962,0.699-1.814,1.313-2.559
			c0.61-0.742,1.267-1.464,1.968-2.165c0.263-0.262,0.567-0.479,0.918-0.656c1.137-0.611,2.274-1.136,3.412-1.575
			c1.136-0.437,2.316-0.742,3.543-0.918c0.699-0.174,1.397-0.328,2.099-0.459c0.699-0.131,1.398-0.109,2.1,0.065
			c0.611,0,1.355,0.088,2.23,0.262c0.175,0,0.306,0.023,0.394,0.066c0.087,0.045,0.218,0.065,0.394,0.065
			c2.1,0.088,3.521,0.964,4.265,2.625c0.742,1.663,1.005,3.588,0.787,5.773c-0.219,2.188-0.787,4.31-1.705,6.364
			c-0.919,2.056-1.948,3.522-3.084,4.396c-0.351,0.176-0.701,0.373-1.05,0.59c-0.351,0.219-0.656,0.504-0.918,0.853
			c-0.177,0.262-0.394,0.394-0.656,0.394c-0.351,0.176-0.679,0.351-0.984,0.525c-0.308,0.176-0.679,0.351-1.115,0.525
			c-0.787,0.262-1.554,0.525-2.296,0.787c-0.744,0.263-1.466,0.482-2.165,0.656c-1.227,0.176-1.925,0.351-2.1,0.525
			c-0.176,0.176-0.394,0.744-0.656,1.706c-0.088,0.351-0.153,0.656-0.196,0.918c-0.045,0.263-0.065,0.525-0.065,0.787
			c0,1.663-0.154,3.543-0.46,5.643c-0.308,2.099-0.569,4.199-0.787,6.298c-0.219,2.1-0.263,4.133-0.131,6.102
			c0.131,1.968,0.722,3.653,1.771,5.052c0.61,0.875,1.486,1.531,2.624,1.968c0.349,0.262,0.918,0.308,1.706,0.131
			c1.397-0.437,2.536-1.005,3.411-1.706c0.787-0.525,1.552-1.05,2.296-1.575c0.742-0.524,1.464-1.049,2.165-1.574
			c0.611-0.525,1.182-1.093,1.706-1.706c0.787-1.049,1.552-2.077,2.296-3.083c0.742-1.004,1.421-2.12,2.034-3.346
			c0.174-0.263,0.328-0.502,0.459-0.722c0.131-0.217,0.283-0.414,0.459-0.59c1.05-1.224,1.969-2.536,2.756-3.937
			c0.787-1.398,1.617-2.755,2.493-4.068c0.349-0.524,0.567-0.918,0.656-1.181c0.437-1.05,0.938-2.034,1.509-2.952
			c0.567-0.918,1.201-1.858,1.902-2.821C322.598,60.594,323.079,60.244,323.692,60.244z M307.685,45.154
			c-0.613-0.699-1.05-1.486-1.313-2.362c0-0.263-0.131-0.48-0.394-0.656c-0.701-0.699-1.423-1.224-2.165-1.574
			c-0.744-0.349-1.597-0.437-2.559-0.263c-1.574,0.263-2.581,1.05-3.018,2.362c-0.263,0.701-0.548,1.423-0.853,2.165
			c-0.308,0.744-0.505,1.554-0.591,2.428c0,0.524-0.131,0.963-0.394,1.312c-0.351,0.701-0.57,1.443-0.656,2.23
			c-0.088,0.787-0.22,1.532-0.394,2.23c-0.088,0.613-0.177,1.181-0.263,1.706c-0.088,0.525-0.219,1.05-0.394,1.575
			c-0.176,0.438-0.308,0.81-0.394,1.115c-0.088,0.307-0.045,0.678,0.132,1.115c2.273-0.263,4.329-0.831,6.166-1.706
			c1.398-0.699,2.448-1.574,3.149-2.624c0.611-0.787,1.158-1.575,1.641-2.362c0.479-0.787,0.983-1.618,1.509-2.493
			c0.263-0.437,0.306-0.787,0.131-1.05c-0.088-0.525,0-1.136,0.263-1.837c0.086-0.174,0.151-0.394,0.196-0.656
			C307.53,45.548,307.597,45.331,307.685,45.154z"/>
	</g>
	<g>
		<path fill="#D1AB59" d="M364.088,74.257c1.5-2.25,4.03-11.434,6.654-11.434c4.03,0,4.03,12.652,2.812,14.901
			c-4.03,6.935-6.936,0-13.401,1.218c-4.968,2.249-8.154,3.468-2.625,5.717c5.155,4.78,26.71-4.78,11.996,7.966
			c-5.436,4.686-25.116,17.525-10.496,24.273c18.369,8.997,10.496-18.088,22.305-16.12c5.343,0,5.624,9.278,13.309,2.25
			c2.53-1.312,1.406-11.434,7.872-6.936c11.996,10.497-10.59,18.369-19.681,12.746c-4.218,1.218-5.342,12.652-12.09,16.12
			c-6.748,3.374-14.526,3.468-21.274-1.312c-6.467-4.499-6.654-12.371-3.937-18.369c1.5-4.592,10.685-10.122,10.685-14.901
			c-1.594-0.656-10.028-3.374-5.248-10.403C353.498,74.257,360.152,76.693,364.088,74.257z"/>
	</g>
	<g>
		<path d="M147.328,189.286c1.574-0.874,2.645-0.962,3.214-0.263c0.568,0.701,0.545,1.663-0.065,2.887
			c-0.525,0.439-1.05,0.832-1.575,1.182s-1.05,0.701-1.574,1.049c-0.875,0.613-1.751,1.204-2.625,1.771
			c-0.875,0.57-1.751,1.115-2.624,1.641c-0.788,0.525-1.575,1.029-2.362,1.509c-0.788,0.481-1.575,0.94-2.362,1.378
			c-0.701,0.438-1.443,0.875-2.231,1.313c-0.787,0.438-1.574,0.875-2.362,1.312c-0.438,0.263-0.875,0.481-1.312,0.656
			c-0.438,0.177-0.875,0.351-1.312,0.524c-0.875,0.263-1.751,0.656-2.624,1.182c-0.439,0.088-0.833,0.307-1.181,0.656
			c-0.176,0.088-0.373,0.176-0.59,0.262c-0.219,0.088-0.416,0.176-0.59,0.263c-0.176,0.964-0.045,1.751,0.394,2.362
			c0.174,0.262,0.349,0.547,0.525,0.853c0.174,0.308,0.348,0.636,0.525,0.983c0.348,0.701,0.676,1.424,0.984,2.166
			c0.306,0.744,0.545,1.508,0.722,2.296c0.174,0.438,0.283,0.897,0.328,1.378c0.043,0.481,0.108,0.94,0.197,1.377
			c0.174,0.439,0.283,0.876,0.328,1.313c0.043,0.439,0.151,0.875,0.328,1.313c0.086,0.524,0.152,1.049,0.197,1.574
			c0.043,0.525,0.065,1.05,0.065,1.574c0.086,0.525,0.131,1.05,0.131,1.574c0,0.525,0.043,1.008,0.131,1.443v0.788
			c0.174,1.226,0.086,2.273-0.262,3.149c-0.176,0.436-0.351,0.918-0.525,1.443c-0.176,0.524-0.351,1.049-0.525,1.574
			c-0.262,1.398-0.833,2.842-1.706,4.33c-0.439,0.699-0.853,1.377-1.247,2.033s-0.81,1.333-1.247,2.034
			c-0.176,0.175-0.328,0.394-0.459,0.656c-0.131,0.263-0.285,0.479-0.459,0.655l-1.312,1.313c-2.801,3.235-6.124,5.598-9.972,7.086
			c-2.362,0.873-4.812,1.574-7.348,2.1c-1.226,0.174-2.472,0.348-3.739,0.524c-1.269,0.175-2.559,0.306-3.871,0.394
			c-4.025,0.263-7.873-0.262-11.547-1.574l-3.937-1.574c-0.613-0.352-1.226-0.68-1.837-0.984c-0.613-0.308-1.226-0.679-1.837-1.115
			c-3.674-2.014-5.904-5.205-6.692-9.578c-0.176-1.575-0.131-2.887,0.131-3.938c0.174-0.613,0.371-1.226,0.59-1.836
			c0.217-0.613,0.459-1.27,0.722-1.969c1.224-2.887,2.756-5.38,4.593-7.479c1.923-2.362,4.067-4.461,6.429-6.298
			c0.961-0.699,1.923-1.398,2.887-2.1c0.961-0.699,1.968-1.313,3.018-1.837c1.05-0.524,2.1-1.05,3.149-1.575
			c1.05-0.524,2.143-1.049,3.28-1.574c0.874-0.437,1.706-0.808,2.493-1.115c0.787-0.305,1.574-0.676,2.362-1.115
			c1.574-0.611,3.192-1.355,4.854-2.23c0.263,0,0.394-0.043,0.394-0.131c0-0.086,0.043-0.131,0.131-0.131l0.263-0.132
			c0-0.175-0.023-0.328-0.066-0.46c-0.045-0.131-0.065-0.239-0.065-0.328c-0.525-0.961-1.029-1.879-1.509-2.755
			c-0.482-0.873-0.941-1.792-1.378-2.755c-1.4-2.887-3.128-5.531-5.183-7.939c-2.056-2.404-4.178-4.744-6.364-7.02
			c-1.75-1.923-3.434-3.826-5.051-5.707c-1.62-1.881-3.26-3.783-4.92-5.709c-1.226-1.397-2.473-2.775-3.74-4.133
			c-1.269-1.355-2.45-2.799-3.542-4.33c-1.095-1.529-2.014-3.127-2.756-4.789c-0.744-1.66-1.246-3.455-1.509-5.379
			c-0.349-3.412-0.131-6.824,0.656-10.235c0.437-1.749,0.918-3.629,1.443-5.642c0.525-2.012,1.224-3.761,2.099-5.249
			c0.699-1.224,1.464-2.514,2.296-3.871c0.83-1.355,1.989-2.296,3.477-2.821c0.525-0.174,1.027-0.394,1.509-0.656
			c0.48-0.262,0.939-0.525,1.378-0.787c3.149-2.273,6.692-4.285,10.628-6.036c2.625-1.224,5.335-2.1,8.135-2.625
			c2.798-0.525,5.597-0.873,8.397-1.05c1.923-0.174,3.783-0.086,5.577,0.263c1.792,0.351,3.563,0.744,5.314,1.181
			c1.486,0.263,2.821,0.722,4.002,1.378c1.181,0.656,2.382,1.378,3.608,2.165c0.787,0.613,1.552,1.247,2.296,1.902
			c0.742,0.656,1.333,1.509,1.771,2.559c0.263,0.613,0.502,1.181,0.722,1.706c0.217,0.525,0.414,1.138,0.591,1.837
			c0.174,1.05,0.305,2.1,0.394,3.149c0.086,1.049,0.174,2.056,0.262,3.018c0,1.05,0,2.08,0,3.083c0,1.007-0.045,2.033-0.131,3.084
			c-0.176,1.226-0.351,2.492-0.524,3.805c-0.177,1.313-0.351,2.582-0.525,3.805c-0.176,1.051-0.482,2.034-0.918,2.953
			c-0.439,0.918-0.964,1.816-1.575,2.689c-1.138,1.926-2.362,3.457-3.674,4.593c-0.701,0.612-1.4,0.787-2.1,0.524
			c-0.525,0-0.875-0.217-1.05-0.656c0-0.174,0.043-0.393,0.131-0.656c0.086-0.262,0.217-0.436,0.394-0.523
			c0.611-0.438,1.05-0.939,1.313-1.51c0.262-0.568,0.524-1.158,0.787-1.771c0.611-1.486,1.115-2.995,1.509-4.527
			c0.394-1.529,0.765-3.083,1.115-4.657c0.349-1.486,0.525-2.995,0.525-4.526c0-1.53,0-3.039,0-4.527
			c0-0.349-0.088-0.874-0.262-1.575c-0.351-0.961-0.679-1.902-0.984-2.821c-0.307-0.918-0.59-1.857-0.853-2.821
			c-0.439-1.661-1.313-2.842-2.625-3.543c-1.05-0.525-2.056-1.049-3.018-1.574c-0.964-0.525-2.057-0.788-3.28-0.788
			c-0.439,0-0.875,0-1.313,0c-0.438,0-0.875,0.045-1.312,0.131c-1.488,0.176-2.952,0.394-4.396,0.656
			c-1.443,0.262-2.909,0.57-4.396,0.918c-0.701,0.176-1.357,0.373-1.968,0.59c-0.613,0.219-1.269,0.416-1.968,0.59
			c-1.575,0.439-3.106,0.984-4.592,1.64c-1.488,0.656-2.932,1.378-4.33,2.165c-0.701,0.439-1.334,0.918-1.902,1.443
			c-0.57,0.525-1.161,1.095-1.771,1.706c-0.613,0.524-1.204,1.049-1.771,1.574c-0.57,0.525-1.072,1.138-1.509,1.837
			c-0.351,0.439-0.656,0.918-0.918,1.443c-0.263,0.525-0.482,1.096-0.656,1.706c-0.351,1.663-0.613,3.456-0.787,5.38
			c0,1.226-0.022,2.428-0.066,3.607c-0.045,1.182,0.021,2.385,0.197,3.609c0,1.226,0.305,2.581,0.918,4.067
			c0.437,1.138,1.049,2.188,1.837,3.149c0.787,0.963,1.529,1.925,2.23,2.887c2.798,3.762,5.728,7.37,8.791,10.824
			c3.061,3.457,6.122,7.021,9.185,10.694c1.312,1.575,2.667,3.128,4.067,4.658c1.398,1.531,2.799,3.04,4.199,4.526
			c0.874,0.787,1.661,1.663,2.362,2.625c0.699,0.963,1.398,1.968,2.1,3.018c0.086,0.176,0.174,0.308,0.262,0.394
			c0.086,0.088,0.174,0.22,0.263,0.394c0.174,0.176,0.283,0.351,0.328,0.525c0.043,0.176,0.151,0.35,0.328,0.524
			c0.437-0.175,0.808-0.306,1.115-0.394c0.306-0.086,0.634-0.217,0.984-0.394c0.349-0.087,0.676-0.175,0.984-0.263
			c0.306-0.086,0.677-0.174,1.115-0.262c1.224-0.525,2.428-1.051,3.608-1.575c1.181-0.524,2.382-1.05,3.608-1.575
			c1.224-0.61,2.405-1.246,3.543-1.902c1.136-0.656,2.316-1.332,3.542-2.033c0.349-0.086,0.699-0.263,1.05-0.525
			c0.174-0.086,0.371-0.174,0.59-0.262c0.217-0.086,0.414-0.175,0.59-0.263c0.174-0.175,0.394-0.306,0.656-0.394
			c0.262-0.086,0.479-0.217,0.656-0.395c0.262-0.174,0.502-0.305,0.722-0.393c0.217-0.086,0.459-0.218,0.722-0.395
			c0.174-0.086,0.328-0.174,0.459-0.262C147,189.463,147.151,189.375,147.328,189.286z M114.393,229.307
			c0.174-1.661,0-3.367-0.524-5.117c-0.351-2.012-1.095-3.98-2.231-5.905c-0.963-1.923-1.837-3.937-2.624-6.036l-0.263-0.131
			c-0.088,0.088-0.262,0.131-0.524,0.131c-0.177,0-0.351,0.088-0.525,0.263c-0.964,0.438-1.882,0.833-2.756,1.181
			c-0.875,0.352-1.75,0.701-2.624,1.051c-0.875,0.438-1.729,0.809-2.559,1.115c-0.833,0.307-1.729,0.678-2.69,1.115
			c-0.963,0.438-1.925,0.918-2.887,1.443c-0.438,0.262-0.898,0.504-1.377,0.721c-0.482,0.22-0.984,0.459-1.509,0.723
			c-0.438,0.176-0.832,0.438-1.181,0.787c-0.176,0.176-0.351,0.328-0.525,0.459c-0.176,0.131-0.351,0.285-0.525,0.459l-5.773,4.855
			c-0.351,0.524-0.787,0.963-1.312,1.312c-0.176,0.177-0.373,0.394-0.59,0.656c-0.219,0.263-0.416,0.481-0.59,0.656
			c-0.525,0.351-0.875,0.612-1.05,0.787c-0.439,0.437-0.701,0.787-0.787,1.05c-0.263,0.349-0.504,0.699-0.722,1.05
			c-0.22,0.349-0.417,0.742-0.591,1.181c-0.176,0.437-0.373,0.83-0.59,1.182c-0.219,0.348-0.416,0.698-0.59,1.049
			c-0.263,0.611-0.308,1.398-0.131,2.361c0.086,0.874,0.349,1.707,0.787,2.494c0.174,0.437,0.306,0.853,0.394,1.246
			c0.086,0.394,0.217,0.808,0.394,1.246c0.349,1.838,1.574,3.193,3.674,4.068c1.837,0.873,3.76,1.529,5.773,1.968
			c0.873,0.349,1.661,0.524,2.362,0.524c0.437,0.087,0.853,0.152,1.247,0.197c0.394,0.043,0.808,0.066,1.246,0.066
			c1.923,0.262,3.979,0.043,6.167-0.656c0.962-0.352,1.923-0.723,2.887-1.115c0.961-0.395,1.923-0.854,2.887-1.379
			c1.224-0.701,2.317-1.443,3.28-2.23c0.961-0.787,1.88-1.662,2.755-2.624c1.661-2.099,2.755-4.461,3.28-7.085
			C113.912,232.936,114.217,231.229,114.393,229.307z"/>
		<path d="M173.699,195.06c-0.701,0.263-1.443,0.701-2.23,1.312c-0.787,0.613-1.312,1.27-1.575,1.969
			c-0.176,0.613-0.416,1.182-0.722,1.706c-0.308,0.524-0.767,0.964-1.377,1.312c-0.263,0.263-0.394,0.482-0.394,0.656
			c-0.351,0.875-0.767,1.686-1.246,2.428c-0.482,0.744-0.853,1.598-1.116,2.559c-0.088,0.262-0.242,0.525-0.459,0.787
			c-0.219,0.263-0.416,0.525-0.59,0.787c-0.351,0.613-0.679,1.203-0.984,1.771c-0.308,0.57-0.459,1.246-0.459,2.034
			c0,0.088-0.088,0.308-0.263,0.655c-0.438,1.139-0.744,2.297-0.918,3.478c-0.176,1.181-0.308,2.385-0.394,3.608
			c0,0.701-0.088,1.378-0.262,2.034c-0.176,0.655-0.351,1.335-0.525,2.034c-0.439,1.137-0.482,2.188-0.131,3.148
			c0.086,0.439,0.043,1.095-0.131,1.969c-0.351,0.961-0.678,1.857-0.984,2.689c-0.308,0.83-0.547,1.684-0.722,2.559
			c-0.176,0.525-0.373,1.027-0.59,1.509c-0.22,0.479-0.459,0.984-0.722,1.509c0,0.086-0.066,0.152-0.197,0.197
			c-0.131,0.043-0.242,0.108-0.328,0.197c-0.525,0-1.007-0.132-1.443-0.395c-0.439-0.262-0.875-0.438-1.312-0.524
			c-0.176,0.175-0.439,0.524-0.788,1.05c-0.351,0-0.701-0.176-1.049-0.525c-0.439-0.524-1.05-0.701-1.837-0.524
			c-0.088,0-0.153,0.021-0.197,0.065c-0.045,0.043-0.11,0.066-0.197,0.066c-0.701,0.086-1.136-0.178-1.312-0.788
			c0-0.088-0.021-0.153-0.065-0.196c-0.043-0.045-0.066-0.111-0.066-0.197c0.088-0.701,0.023-1.313-0.197-1.837
			c-0.217-0.524-0.414-1.138-0.59-1.837c-0.174-0.701-0.306-1.443-0.394-2.23c-0.086-0.787-0.174-1.529-0.263-2.23
			c-0.086-0.962-0.108-1.924-0.065-2.887c0.045-0.962-0.021-1.924-0.197-2.887v-0.131c0-1.398-0.043-2.756-0.131-4.068
			c-0.086-1.313-0.174-2.624-0.262-3.937c-0.086-0.698-0.086-1.354,0-1.968c0.088-0.611,0.176-1.225,0.262-1.838
			c0-0.524,0.022-1.026,0.066-1.508c0.045-0.48,0.065-0.984,0.065-1.51c0-0.961,0-1.88,0-2.756c0-0.873,0.088-1.748,0.262-2.623
			c0.088-1.575,0.088-3.062,0-4.462c-0.174-2.362-0.043-4.724,0.394-7.085c0.176-0.699,0.285-1.355,0.328-1.969
			c0.045-0.611,0.154-1.267,0.328-1.968c0.176-1.224,0.373-2.493,0.59-3.806c0.22-1.313,0.417-2.579,0.591-3.805
			c0.262-1.225,0.479-2.471,0.656-3.74c0.174-1.267,0.394-2.514,0.656-3.739c0-0.61,0.131-1.267,0.394-1.968
			c0.263-1.225,0.545-2.405,0.853-3.543c0.305-1.136,0.633-2.273,0.984-3.412c0-0.086,0.021-0.174,0.066-0.262
			c0.043-0.086,0.065-0.174,0.065-0.263l3.149-10.234c0.437-1.398,0.918-2.776,1.443-4.134c0.525-1.355,1.05-2.689,1.575-4.002
			c0.262-0.699,0.545-1.377,0.853-2.033c0.305-0.656,0.633-1.333,0.984-2.034c0.174-0.61,0.414-1.181,0.722-1.706
			c0.306-0.524,0.633-1.004,0.984-1.443c0.263-0.437,0.525-0.896,0.788-1.378c0.262-0.479,0.479-0.984,0.656-1.509
			c0.349-0.699,0.699-1.398,1.05-2.1c0.349-0.699,0.874-1.312,1.575-1.837c0.611-0.525,1.224-1.398,1.837-2.624
			c0.611-1.136,1.355-2.055,2.23-2.756c1.486-1.136,3.061-1.968,4.724-2.493c1.661-0.525,3.412-0.874,5.249-1.05
			c0.437,0,0.83-0.021,1.181-0.065c0.349-0.043,0.742-0.066,1.181-0.066c0.699-0.086,1.443-0.065,2.23,0.066
			c0.788,0.131,1.529,0.285,2.23,0.459c1.313,0.262,2.58,0.59,3.805,0.984c1.224,0.394,2.405,0.941,3.543,1.641
			c0.699,0.438,1.333,0.941,1.902,1.509c0.568,0.57,1.115,1.204,1.64,1.902c0.699,1.05,1.267,2.362,1.706,3.937
			c0.086,0.176,0.151,0.351,0.197,0.525c0.043,0.176,0.108,0.351,0.197,0.525c0.349,0.875,0.525,1.62,0.525,2.23
			c0,0.263,0.021,0.504,0.065,0.722c0.043,0.219,0.066,0.459,0.066,0.722c0.174,0.875,0.217,1.532,0.131,1.968
			c-0.176,1.138-0.262,2.254-0.262,3.346c0,1.096-0.088,2.165-0.263,3.215c-0.176,1.227-0.373,2.428-0.59,3.608
			c-0.219,1.181-0.459,2.341-0.722,3.478c-0.525,1.837-1.247,3.607-2.165,5.314c-0.918,1.705-1.968,3.346-3.149,4.92
			c-1.181,1.574-2.384,3.105-3.608,4.592c-1.226,1.489-2.407,2.976-3.542,4.462c-1.05,1.4-2.057,2.669-3.018,3.806
			c-0.963,1.137-2.1,2.23-3.412,3.279c-1.226,0.964-2.493,1.902-3.805,2.822c-1.312,0.918-2.581,1.859-3.805,2.82
			c-2.188,1.751-4.287,3.412-6.298,4.986c-2.013,1.574-4.418,2.713-7.217,3.411c-1.05,0.263-1.64,0.505-1.771,0.722
			c-0.131,0.22-0.285,0.811-0.459,1.771c-0.263,1.05-0.394,2.057-0.394,3.018c-0.088,0.525-0.111,1.029-0.066,1.51
			c0.043,0.481,0.066,0.94,0.066,1.377c0.086,0.439,0.108,0.811,0.065,1.115c-0.045,0.309-0.065,0.637-0.065,0.984
			c-0.088,0.439-0.131,0.854-0.131,1.246c0,0.395-0.045,0.811-0.131,1.247c-0.176,0.876-0.262,1.729-0.262,2.559
			c0,0.833,0,1.686,0,2.559c-0.088,0.613-0.154,1.204-0.197,1.771c-0.045,0.569-0.023,1.161,0.065,1.771
			c0.086,0.177,0.131,0.308,0.131,0.394c0,0.088,0.043,0.219,0.131,0.394c0.174-0.263,0.349-0.567,0.525-0.919
			c0.525-1.397,1.159-2.755,1.903-4.066c0.742-1.313,1.464-2.668,2.165-4.068c0.348-0.699,0.722-1.313,1.115-1.837
			s0.808-1.136,1.247-1.837c0.262-0.437,0.545-0.873,0.853-1.313c0.306-0.437,0.634-0.873,0.984-1.312
			c0.262-0.263,0.525-0.546,0.787-0.853c0.263-0.307,0.525-0.591,0.787-0.854c0.699-0.699,1.464-1.355,2.296-1.969
			c0.831-0.61,1.683-1.18,2.559-1.705c1.661-0.961,3.412-1.313,5.249-1.05c0.699,0,1.355,0.394,1.968,1.181
			c0.174,0.352,0.525,0.876,1.05,1.574c0.437,0.439,0.742,1.096,0.918,1.969c0.525,2.275,1.115,4.418,1.771,6.43
			c0.656,2.014,0.984,4.244,0.984,6.691c-0.088,3.937-0.504,7.83-1.247,11.678c-0.744,3.851-0.984,7.742-0.722,11.679
			c0.174,1.136,0.283,2.251,0.328,3.346c0.043,1.093,0.108,2.208,0.197,3.347c0,0.436-0.022,0.807-0.066,1.115
			c-0.045,0.305-0.065,0.633-0.065,0.983c0,1.398,0.48,2.798,1.443,4.198c0.263,0.35,0.656,0.525,1.181,0.525
			c0.611,0,1.158-0.111,1.64-0.328c0.479-0.219,0.939-0.504,1.377-0.853c0.699-0.524,1.312-1.138,1.837-1.837
			c0.437-0.701,0.874-1.357,1.312-1.969c0.437-0.613,0.874-1.269,1.313-1.968c1.049-1.751,2.011-3.522,2.887-5.314
			c0.873-1.794,1.706-3.608,2.493-5.445c0.174-0.175,0.283-0.394,0.328-0.655c0.043-0.264,0.109-0.48,0.197-0.656
			c0.086-0.175,0.152-0.395,0.197-0.656c0.043-0.263,0.109-0.48,0.197-0.656c0.699-1.398,1.247-2.799,1.64-4.199
			c0.394-1.398,0.939-2.799,1.64-4.198c0.349-0.874,0.568-1.53,0.656-1.968c0.174-0.699,0.414-1.355,0.722-1.969
			c0.306-0.611,0.59-1.268,0.853-1.969c0.699-1.398,1.312-2.842,1.837-4.33c0.525-1.486,0.961-2.973,1.312-4.461
			c0.262-1.224,0.545-2.428,0.853-3.608c0.305-1.181,0.633-2.382,0.984-3.608c0.174-0.524,0.394-1.049,0.656-1.574
			c0.262-0.525,0.525-1.05,0.787-1.574c0.174-0.438,0.394-0.809,0.656-1.115c0.262-0.307,0.525-0.678,0.787-1.115
			c0.525-0.787,1.267-1.137,2.23-1.051c0.263,0.439,0.371,0.854,0.328,1.247c-0.045,0.394-0.154,0.81-0.328,1.247
			c-0.088,0.438-0.197,0.832-0.328,1.18c-0.131,0.352-0.285,0.745-0.459,1.182c-0.263,0.438-0.351,0.875-0.263,1.313
			c0.086,0.35,0.043,0.701-0.131,1.049c-0.176,0.701-0.373,1.424-0.591,2.166c-0.219,0.744-0.416,1.508-0.59,2.296
			c-0.176,0.438-0.328,0.853-0.459,1.246c-0.131,0.394-0.285,0.81-0.459,1.247c-1.574,3.936-2.669,7.961-3.28,12.071
			c-0.525,3.149-1.423,6.189-2.69,9.119c-1.269,2.933-2.646,5.794-4.133,8.595c-0.613,1.136-1.204,2.34-1.771,3.608
			c-0.57,1.267-1.204,2.513-1.903,3.739c-0.701,1.225-1.466,2.361-2.296,3.412c-0.833,1.049-1.816,1.923-2.952,2.624
			c-0.788,0.437-1.554,0.873-2.296,1.312c-0.744,0.438-1.554,0.742-2.427,0.919c-0.177,0.086-0.351,0.175-0.525,0.263
			c-0.176,0.086-0.351,0.174-0.525,0.262c-0.351,0.175-0.679,0.306-0.984,0.395c-0.307,0.086-0.678,0.086-1.115,0
			c-0.176,0-0.351,0.02-0.525,0.064c-0.176,0.044-0.351,0.066-0.525,0.066c-1.488,0.437-2.997,0.262-4.526-0.525
			c-1.532-0.787-2.69-1.882-3.478-3.279c-0.438-0.701-0.81-1.424-1.115-2.166c-0.308-0.744-0.547-1.554-0.722-2.428
			c-0.351-2.099-0.525-4.198-0.525-6.297c0-2.1-0.131-4.244-0.394-6.43c-0.088-1.225-0.11-2.471-0.065-3.74
			c0.043-1.267,0.065-2.514,0.065-3.739c0.174-3.411,0.545-6.735,1.115-9.972c0.568-3.236,0.939-6.561,1.116-9.973
			c0-0.962,0.043-1.924,0.131-2.887c0.086-0.961,0.086-1.924,0-2.887C174.093,195.584,173.962,195.236,173.699,195.06z
			 M157.823,189.418c0.525-0.175,0.873-0.307,1.05-0.395c0.787-0.524,1.595-1.049,2.427-1.574c0.83-0.525,1.595-1.05,2.296-1.574
			c1.136-0.873,2.23-1.727,3.28-2.559c1.049-0.83,2.099-1.641,3.149-2.428c1.486-1.225,2.887-2.471,4.199-3.74
			c1.312-1.267,2.579-2.602,3.805-4.002c0.174-0.262,0.394-0.524,0.656-0.787c0.262-0.262,0.479-0.524,0.656-0.787
			c0.787-0.787,1.575-1.595,2.362-2.428c0.787-0.83,1.575-1.64,2.362-2.427c0.174-0.175,0.349-0.371,0.525-0.591
			c0.174-0.217,0.349-0.414,0.525-0.59c0.611-0.699,1.158-1.422,1.64-2.166c0.479-0.742,0.939-1.508,1.378-2.296
			c1.923-3.149,3.628-6.429,5.117-9.841c0.174-0.525,0.348-1.027,0.525-1.509c0.174-0.479,0.348-0.984,0.524-1.509
			c0.086-0.438,0.152-0.854,0.197-1.246c0.043-0.395,0.108-0.809,0.197-1.247c0.174-0.699,0.283-1.398,0.328-2.1
			c0.043-0.699,0.109-1.397,0.197-2.099c0-0.525,0-1.051,0-1.575s0.043-1.05,0.131-1.575c0.174-0.524,0.174-1.092,0-1.705
			c-0.176-0.437-0.219-0.788-0.131-1.05c0-1.136-0.262-2.23-0.787-3.28c-0.176-0.349-0.262-0.611-0.262-0.788
			c-0.088-0.873-0.525-1.837-1.313-2.886c-0.176-0.349-0.351-0.677-0.524-0.984c-0.176-0.306-0.351-0.677-0.525-1.115
			c-0.176-0.787-0.701-1.443-1.575-1.968c-0.262-0.174-0.525-0.306-0.787-0.394c-0.263-0.086-0.482-0.217-0.656-0.394
			c-0.963-0.611-2.056-0.742-3.28-0.394c-0.787,0.176-1.531,0.438-2.23,0.787c-0.701,0.351-1.4,0.744-2.1,1.181l-1.181,1.181
			c-0.263,0.351-0.525,0.701-0.788,1.05c-0.262,0.351-0.524,0.701-0.787,1.05c-0.176,0.262-0.351,0.524-0.525,0.787
			c-0.176,0.262-0.262,0.613-0.262,1.05c0,0.262-0.088,0.481-0.263,0.656c-0.525,0.875-0.963,1.729-1.312,2.559
			c-0.351,0.833-0.744,1.729-1.181,2.69c-0.088,0.176-0.176,0.351-0.263,0.525c-0.088,0.176-0.131,0.394-0.131,0.656
			c0,0.177-0.045,0.328-0.131,0.459c-0.088,0.132-0.176,0.285-0.263,0.46c-0.262,0.351-0.481,0.876-0.656,1.575
			c-0.263,1.662-0.833,3.193-1.706,4.592c-0.176,0.262-0.285,0.525-0.328,0.787c-0.045,0.263-0.153,0.482-0.328,0.656
			c-0.263,0.787-0.525,1.598-0.788,2.428c-0.262,0.832-0.525,1.597-0.787,2.296c-0.351,0.701-0.613,1.443-0.787,2.23
			c-0.176,0.788-0.394,1.532-0.656,2.231c-0.262,0.438-0.459,0.94-0.59,1.508c-0.131,0.57-0.285,1.115-0.459,1.641
			c-0.351,0.963-0.701,1.926-1.049,2.887c-0.351,0.963-0.701,1.926-1.05,2.887c-0.176,0.438-0.308,0.81-0.394,1.115
			c-0.088,0.308-0.176,0.679-0.263,1.115c-0.176,1.138-0.459,2.21-0.853,3.215c-0.394,1.006-0.853,1.99-1.377,2.952
			c-0.176,0.438-0.351,0.876-0.525,1.312c-0.176,0.439-0.308,0.876-0.394,1.313c-0.176,0.701-0.328,1.378-0.459,2.034
			c-0.131,0.656-0.285,1.335-0.459,2.034c-0.088,0.35-0.176,0.678-0.263,0.984c-0.088,0.307-0.176,0.678-0.262,1.115
			c-0.176,0.612-0.285,1.203-0.328,1.771c-0.045,0.57-0.242,1.116-0.59,1.641c-0.088,0.088-0.131,0.263-0.131,0.524
			c0,0.964-0.219,1.706-0.656,2.23C157.691,188.193,157.646,188.807,157.823,189.418z"/>
		<path d="M241.141,190.467c0.524,0.525,0.787,1.05,0.787,1.574c-0.176,0.439-0.285,0.811-0.328,1.116
			c-0.045,0.308-0.11,0.591-0.196,0.853c-0.439,0.701-0.744,1.357-0.919,1.969c-0.176,0.613-0.438,1.269-0.787,1.968
			c-0.177,0.438-0.394,0.876-0.656,1.312c-0.351,0.264-0.59,0.57-0.722,0.919c-0.131,0.351-0.285,0.744-0.459,1.181
			c-0.177,0.177-0.285,0.373-0.328,0.591c-0.045,0.22-0.153,0.46-0.328,0.722c-0.176,0.439-0.351,0.811-0.524,1.115
			c-0.177,0.308-0.308,0.679-0.394,1.115c-0.089,0.176-0.197,0.395-0.328,0.656c-0.132,0.262-0.242,0.482-0.328,0.656
			c-0.438,0.963-0.854,1.925-1.247,2.887c-0.394,0.963-0.722,1.968-0.983,3.018l-0.263,0.131c-0.351,0.525-0.656,1.029-0.919,1.51
			c-0.262,0.481-0.612,0.984-1.049,1.509c-0.439,0.787-1.072,1.466-1.903,2.034c-0.832,0.569-1.64,1.16-2.427,1.771
			c-0.439,0.438-0.919,0.809-1.443,1.115c-0.525,0.307-1.05,0.547-1.575,0.721c-0.176,0-0.351,0.088-0.524,0.263
			c-0.613,0.177-1.203,0.285-1.771,0.328c-0.57,0.045-1.072,0.153-1.509,0.328c-0.964,0.177-1.663,0.132-2.1-0.132
			c-0.701-0.262-1.377-0.479-2.034-0.656c-0.656-0.174-1.292-0.393-1.903-0.655c-0.963-0.437-1.75-0.984-2.362-1.64
			c-0.613-0.656-1.138-1.422-1.574-2.297c-0.437-0.961-0.722-1.902-0.853-2.82c-0.131-0.92-0.283-1.858-0.459-2.822
			c-0.174-0.961-0.24-1.923-0.197-2.887c0.045-0.961,0.065-1.922,0.065-2.887c-0.086-1.049-0.109-2.119-0.065-3.215
			c0.045-1.092,0.065-2.207,0.065-3.346c-0.086-3.586,0.045-7.217,0.394-10.891c0.176-0.961,0.285-1.88,0.328-2.755
			c0.045-0.874,0.154-1.792,0.328-2.756c0.088-0.962,0.197-1.857,0.328-2.69c0.131-0.83,0.285-1.726,0.459-2.689
			c0.262-0.787,0.525-1.552,0.787-2.296c0.263-0.742,0.525-1.552,0.788-2.427c0.086-0.35,0.394-0.525,0.918-0.525
			c0.525,0.088,1.027,0.131,1.509,0.131c0.48,0,0.939,0.131,1.378,0.395c0.611,0.262,1.049,0.612,1.312,1.049
			c0.174,0.439,0.349,0.787,0.525,1.05c0.174,0.263,0.348,0.613,0.525,1.05c0.086,0.176,0.174,0.373,0.262,0.59
			c0.086,0.22,0.131,0.417,0.131,0.591c0.086,0.613,0.131,1.204,0.131,1.771c0,0.57,0.086,1.161,0.263,1.771
			c0.174,1.226,0.217,2.384,0.131,3.478c-0.088,1.094-0.131,2.21-0.131,3.346c0.174,0.963,0.131,1.882-0.131,2.756
			c-0.088,0.262-0.111,0.524-0.065,0.787c0.043,0.262,0.065,0.524,0.065,0.787c0.086,0.701,0.131,1.313,0.131,1.837
			s-0.088,1.138-0.263,1.837c-0.176,0.787-0.262,1.555-0.262,2.297c0,0.744-0.045,1.596-0.131,2.559v1.705l-0.262,0.263
			c0.174,0.787,0.197,1.531,0.065,2.23c-0.131,0.701-0.242,1.4-0.328,2.099c0.086,0.178,0.109,0.328,0.066,0.46
			c-0.045,0.132-0.066,0.241-0.066,0.328c0.174,0.438,0.263,0.853,0.263,1.247c0,0.393,0,0.766,0,1.115
			c-0.088,0.438-0.154,0.853-0.197,1.246c-0.045,0.394-0.022,0.81,0.065,1.246c0.263,1.313,0.349,2.582,0.263,3.806
			c0.086,1.05,0.394,2.013,0.918,2.887c0.086,0.177,0.305,0.263,0.656,0.263c0.611,0,1.05-0.043,1.312-0.132
			c0.525-0.175,0.984-0.437,1.379-0.787c0.394-0.349,0.808-0.699,1.246-1.05c0.263-0.262,0.524-0.525,0.787-0.787
			c0.263-0.263,0.479-0.568,0.656-0.918c1.05-1.225,2.055-2.471,3.018-3.74c0.962-1.268,1.837-2.602,2.624-4.002
			c0.263-0.699,0.568-1.313,0.919-1.837c0.349-0.524,0.656-1.136,0.918-1.837c0.438-0.611,0.809-1.225,1.116-1.837
			c0.305-0.611,0.633-1.313,0.983-2.1c0.437-0.962,0.854-1.857,1.247-2.69c0.394-0.83,0.765-1.771,1.115-2.82
			c0.086-0.349,0.217-0.634,0.394-0.854c0.174-0.217,0.349-0.545,0.524-0.984C238.603,191.168,239.652,190.644,241.141,190.467z
			 M210.699,158.451c0.263-0.086,0.502-0.174,0.722-0.262c0.217-0.087,0.502-0.132,0.853-0.132c0.263-0.175,0.437-0.175,0.525,0
			c0.262,0.088,0.568,0.11,0.918,0.065c0.349-0.043,0.699-0.065,1.05-0.065c1.574-0.263,2.755,0.22,3.542,1.443
			c-0.176,0.787-0.328,1.574-0.459,2.362c-0.131,0.787-0.328,1.574-0.59,2.361c-0.525,0.525-0.919,0.963-1.181,1.313
			c-0.088,0-0.176,0.045-0.262,0.131c-0.439,0-0.918,0-1.443,0s-1.007-0.217-1.443-0.656c-0.701-0.699-1.138-1.268-1.313-1.705
			c-0.701-0.874-1.006-1.793-0.918-2.756c0.086-0.349,0.086-0.699,0-1.05C210.611,159.152,210.611,158.802,210.699,158.451z"/>
		<path d="M253.472,184.563c0.349-0.699,0.699-1.398,1.05-2.1c0.349-0.699,0.699-1.398,1.05-2.1c1.923-3.497,4.11-6.561,6.561-9.185
			c1.224-1.224,2.579-2.316,4.067-3.28c1.486-0.961,3.104-1.617,4.855-1.969c2.099-0.436,4.11-0.131,6.035,0.919
			c1.923,1.05,3.28,2.624,4.067,4.724c0.699,1.838,1.202,3.674,1.51,5.512c0.305,1.836,0.633,3.674,0.983,5.51
			c0.175,0.788,0.24,1.598,0.197,2.428c-0.045,0.832-0.065,1.641-0.065,2.428c0,0.875,0.043,1.705,0.131,2.493
			c0.086,0.787,0.086,1.62,0,2.493c0,1.313-0.022,2.887-0.065,4.724c-0.045,1.837-0.111,3.499-0.197,4.985
			c0.263-0.174,0.525-0.328,0.787-0.459c0.263-0.131,0.48-0.283,0.656-0.459c0.874-0.699,2.012-1.509,3.412-2.428
			c1.397-0.918,2.887-1.814,4.461-2.689c1.574-0.873,3.083-1.727,4.526-2.559c1.443-0.83,2.646-1.51,3.608-2.034
			c0.611-0.349,1.247-0.808,1.902-1.378c0.656-0.567,1.333-0.721,2.034-0.459c-0.088,0.176-0.065,0.395,0.065,0.656
			c0.132,0.262,0.152,0.394,0.065,0.394c-0.787,0.524-1.334,1.072-1.64,1.64c-0.308,0.57-1.115,1.204-2.428,1.903
			c-0.524,0.701-1.378,1.509-2.559,2.427c-1.181,0.919-2.427,1.816-3.739,2.69c-1.313,0.876-2.581,1.729-3.806,2.559
			c-1.226,0.833-2.188,1.554-2.886,2.165c-0.788,0.613-1.555,1.246-2.297,1.902c-0.744,0.656-1.466,1.335-2.165,2.034
			c-0.787,0.701-1.312,1.663-1.574,2.887c-0.438,1.399-0.767,2.843-0.984,4.33c-0.219,1.488-0.767,2.843-1.64,4.067
			c-0.439,0.701-0.767,1.4-0.984,2.1c-0.22,0.701-0.548,1.4-0.984,2.1c-0.262,0.524-0.547,1.029-0.853,1.509
			c-0.308,0.481-0.81,0.81-1.509,0.983c-0.613,0.787-1.4,1.379-2.362,1.771c-0.963,0.395-1.619,1.16-1.968,2.297
			c-0.525,0.348-0.964,0.787-1.313,1.313c-0.351,0.524-0.875,0.873-1.574,1.049c-0.177,0-0.285,0.043-0.328,0.131
			c-0.045,0.087-0.153,0.175-0.328,0.264c-0.176,0.348-0.394,0.655-0.656,0.918c-0.262,0.262-0.481,0.568-0.655,0.918
			c-1.05-0.438-1.969-0.963-2.756-1.574c-0.787-0.613-1.531-1.27-2.23-1.969c-0.525-0.438-0.833-0.963-0.919-1.574
			c-0.088-0.611-0.045-1.224,0.132-1.837c0.524-3.849,1.968-6.997,4.33-9.447c2.011-1.837,3.061-4.022,3.148-6.561
			c0.175-1.575,0.437-3.169,0.787-4.789c0.349-1.618,0.611-3.215,0.788-4.79c0.174-1.922,0.282-3.825,0.327-5.707
			c0.044-1.881,0.152-3.783,0.328-5.708c0.175-2.798,0.328-5.531,0.46-8.2c0.131-2.668,0.282-5.4,0.459-8.201
			c0-0.525,0-1.05,0-1.574c0-0.525-0.131-1.051-0.394-1.575c-0.787,0.177-1.466,0.46-2.034,0.853
			c-0.569,0.395-1.072,0.854-1.509,1.379c-1.488,1.75-2.821,3.607-4.002,5.576c-1.181,1.968-2.21,4.002-3.083,6.102
			c-0.439,1.049-0.964,2.1-1.575,3.148c-0.612,1.05-1.226,2.1-1.837,3.149c-0.613,1.05-1.16,2.099-1.64,3.149
			c-0.482,1.049-0.767,2.145-0.854,3.279c-0.262,2.014-0.504,4.002-0.722,5.971c-0.219,1.969-0.547,3.916-0.983,5.839
			c-0.177,0.788-0.285,1.597-0.328,2.428c-0.045,0.833-0.111,1.64-0.197,2.427l-1.181,6.299c0.349,1.751,0.394,3.412,0.131,4.986
			c-0.262,1.574-0.744,3.236-1.443,4.986c-0.351,1.748-0.394,3.52-0.131,5.313c0.263,1.792,0.349,3.563,0.263,5.314
			c-0.089,0.61-0.154,1.181-0.197,1.706c-0.045,0.524-0.11,1.092-0.196,1.705c-0.263,1.486-0.351,3.018-0.263,4.593
			c0.086,1.575,0.086,3.149,0,4.724c0,0.961,0,1.88,0,2.756c0,0.873-0.045,1.791-0.131,2.755c0,0.437-0.066,0.896-0.197,1.378
			c-0.131,0.48-0.242,0.984-0.328,1.509c-0.088-0.177-0.131-0.308-0.131-0.394c0-0.088-0.089-0.219-0.263-0.394
			c-0.177,0.61-0.351,1.181-0.524,1.706c-0.177,0.524-0.351,1.004-0.525,1.443c-0.263,0.437-0.351,0.656-0.263,0.656
			c-0.701,0.436-1.072,0.938-1.115,1.508c-0.045,0.568-0.153,1.202-0.328,1.903c-0.088,0.437-0.196,0.83-0.327,1.181
			c-0.132,0.349-0.46,0.568-0.984,0.656c-0.177,0.086-0.285,0.197-0.328,0.328c-0.045,0.131-0.154,0.283-0.328,0.459
			c-1.138,1.225-2.361,1.268-3.674,0.131c-0.349-0.35-0.677-0.678-0.984-0.983c-0.306-0.308-0.59-0.679-0.853-1.116
			c-0.175-0.176-0.263-0.35-0.263-0.523c0.088-0.965,0.154-1.883,0.197-2.756c0.045-0.876,0.065-1.795,0.065-2.756
			c0.088-1.227,0.176-2.473,0.263-3.739c0.088-1.27,0.131-2.516,0.131-3.739c0.088-3.412,0.088-6.869,0-10.366l-0.394-17.714
			c-0.086-1.749-0.108-3.455-0.065-5.117c0.045-1.66,0.065-3.367,0.065-5.117c-0.086-2.186-0.175-4.352-0.263-6.495
			c-0.086-2.143-0.131-4.351-0.131-6.626c-0.086-1.924-0.108-3.826-0.065-5.709c0.045-1.879,0.065-3.781,0.065-5.707
			c0-1.749,0-3.498,0-5.248s-0.086-3.498-0.263-5.249c-0.086-0.962-0.217-1.923-0.394-2.887c-0.174-0.962-0.349-1.923-0.524-2.887
			c-0.175-1.136-0.152-2.23,0.065-3.28c0.219-1.05,0.416-2.143,0.59-3.28c0.089-0.61,0.57-0.919,1.443-0.919l2.756,0.395
			c0.873,0.176,1.595,0.524,2.165,1.049c0.567,0.525,1.115,1.139,1.64,1.838c0.175,0.262,0.394,0.547,0.656,0.853
			c0.263,0.308,0.525,0.548,0.787,0.722c0.699,0.701,1.378,1.313,2.034,1.837s1.333,1.138,2.034,1.837
			c0.698,0.701,1.246,1.488,1.64,2.361c0.394,0.876,0.765,1.795,1.115,2.756c0.086,0.351,0.218,0.787,0.394,1.313
			C253.164,184.52,253.296,184.563,253.472,184.563z M263.313,229.568c0.962-0.611,1.661-1.574,2.1-2.887
			c0.437-1.313,0.479-2.492,0.131-3.543c-0.176,0.177-0.307,0.285-0.394,0.328c-0.088,0.045-0.176,0.154-0.262,0.328l-1.969,4.33
			c0,0.439,0.043,0.744,0.132,0.919c0,0.177,0.043,0.284,0.131,0.327C263.268,229.417,263.313,229.482,263.313,229.568z"/>
		<path d="M332.985,190.467c0.525,0.525,0.788,1.05,0.788,1.574c-0.177,0.439-0.285,0.811-0.328,1.116
			c-0.045,0.308-0.111,0.591-0.197,0.853c-0.438,0.701-0.744,1.357-0.918,1.969c-0.177,0.613-0.439,1.269-0.788,1.968
			c-0.176,0.438-0.394,0.876-0.655,1.312c-0.351,0.264-0.591,0.57-0.722,0.919c-0.132,0.351-0.285,0.744-0.46,1.181
			c-0.176,0.177-0.284,0.373-0.327,0.591c-0.046,0.22-0.154,0.46-0.328,0.722c-0.177,0.439-0.351,0.811-0.525,1.115
			c-0.176,0.308-0.308,0.679-0.394,1.115c-0.088,0.176-0.196,0.395-0.328,0.656c-0.131,0.262-0.242,0.482-0.328,0.656
			c-0.438,0.963-0.853,1.925-1.246,2.887c-0.394,0.963-0.722,1.968-0.984,3.018l-0.263,0.131c-0.351,0.525-0.655,1.029-0.918,1.51
			c-0.263,0.481-0.613,0.984-1.05,1.509c-0.438,0.787-1.072,1.466-1.902,2.034c-0.833,0.569-1.641,1.16-2.428,1.771
			c-0.438,0.438-0.918,0.809-1.443,1.115c-0.524,0.307-1.05,0.547-1.574,0.721c-0.177,0-0.351,0.088-0.525,0.263
			c-0.612,0.177-1.203,0.285-1.771,0.328c-0.569,0.045-1.071,0.153-1.509,0.328c-0.963,0.177-1.662,0.132-2.099-0.132
			c-0.701-0.262-1.378-0.479-2.034-0.656c-0.656-0.174-1.292-0.393-1.902-0.655c-0.964-0.437-1.751-0.984-2.362-1.64
			c-0.612-0.656-1.138-1.422-1.574-2.297c-0.437-0.961-0.722-1.902-0.853-2.82c-0.132-0.92-0.283-1.858-0.46-2.822
			c-0.174-0.961-0.239-1.923-0.196-2.887c0.045-0.961,0.065-1.922,0.065-2.887c-0.086-1.049-0.108-2.119-0.065-3.215
			c0.045-1.092,0.065-2.207,0.065-3.346c-0.086-3.586,0.045-7.217,0.394-10.891c0.177-0.961,0.285-1.88,0.328-2.755
			c0.045-0.874,0.153-1.792,0.328-2.756c0.088-0.962,0.196-1.857,0.328-2.69c0.131-0.83,0.285-1.726,0.459-2.689
			c0.263-0.787,0.524-1.552,0.787-2.296c0.263-0.742,0.525-1.552,0.787-2.427c0.087-0.35,0.394-0.525,0.919-0.525
			c0.524,0.088,1.027,0.131,1.509,0.131c0.479,0,0.939,0.131,1.378,0.395c0.61,0.262,1.05,0.612,1.312,1.049
			c0.175,0.439,0.349,0.787,0.525,1.05c0.174,0.263,0.349,0.613,0.524,1.05c0.086,0.176,0.175,0.373,0.263,0.59
			c0.086,0.22,0.131,0.417,0.131,0.591c0.087,0.613,0.132,1.204,0.132,1.771c0,0.57,0.086,1.161,0.262,1.771
			c0.175,1.226,0.218,2.384,0.132,3.478c-0.088,1.094-0.132,2.21-0.132,3.346c0.175,0.963,0.132,1.882-0.131,2.756
			c-0.088,0.262-0.11,0.524-0.065,0.787c0.043,0.262,0.065,0.524,0.065,0.787c0.086,0.701,0.131,1.313,0.131,1.837
			s-0.088,1.138-0.262,1.837c-0.177,0.787-0.263,1.555-0.263,2.297c0,0.744-0.045,1.596-0.131,2.559v1.705l-0.263,0.263
			c0.174,0.787,0.196,1.531,0.065,2.23c-0.131,0.701-0.242,1.4-0.328,2.099c0.086,0.178,0.108,0.328,0.065,0.46
			c-0.045,0.132-0.065,0.241-0.065,0.328c0.175,0.438,0.263,0.853,0.263,1.247c0,0.393,0,0.766,0,1.115
			c-0.088,0.438-0.154,0.853-0.197,1.246c-0.045,0.394-0.022,0.81,0.066,1.246c0.262,1.313,0.348,2.582,0.262,3.806
			c0.086,1.05,0.394,2.013,0.919,2.887c0.086,0.177,0.306,0.263,0.656,0.263c0.61,0,1.05-0.043,1.312-0.132
			c0.525-0.175,0.984-0.437,1.378-0.787c0.394-0.349,0.808-0.699,1.246-1.05c0.263-0.262,0.525-0.525,0.788-0.787
			c0.262-0.263,0.479-0.568,0.655-0.918c1.05-1.225,2.055-2.471,3.019-3.74c0.961-1.268,1.837-2.602,2.624-4.002
			c0.263-0.699,0.567-1.313,0.918-1.837c0.349-0.524,0.656-1.136,0.919-1.837c0.437-0.611,0.808-1.225,1.115-1.837
			c0.306-0.611,0.634-1.313,0.984-2.1c0.437-0.962,0.853-1.857,1.246-2.69c0.394-0.83,0.765-1.771,1.115-2.82
			c0.086-0.349,0.218-0.634,0.394-0.854c0.175-0.217,0.349-0.545,0.525-0.984C330.447,191.168,331.497,190.644,332.985,190.467z
			 M302.545,158.451c0.262-0.086,0.502-0.174,0.722-0.262c0.217-0.087,0.502-0.132,0.853-0.132c0.263-0.175,0.437-0.175,0.524,0
			c0.263,0.088,0.568,0.11,0.919,0.065c0.349-0.043,0.699-0.065,1.05-0.065c1.574-0.263,2.755,0.22,3.543,1.443
			c-0.177,0.787-0.328,1.574-0.46,2.362c-0.131,0.787-0.328,1.574-0.59,2.361c-0.525,0.525-0.919,0.963-1.181,1.313
			c-0.089,0-0.177,0.045-0.263,0.131c-0.438,0-0.919,0-1.443,0c-0.525,0-1.007-0.217-1.443-0.656
			c-0.701-0.699-1.138-1.268-1.313-1.705c-0.701-0.874-1.007-1.793-0.918-2.756c0.086-0.349,0.086-0.699,0-1.05
			C302.456,159.152,302.456,158.802,302.545,158.451z"/>
		<path d="M376.153,187.843c-0.701,2.976-1.423,5.927-2.165,8.856c-0.744,2.932-1.423,5.928-2.033,8.988
			c-0.613,3.063-1.029,6.168-1.247,9.316c-0.22,3.149-0.416,6.256-0.591,9.316c-0.088,0.613-0.153,1.181-0.196,1.705
			c-0.045,0.525-0.022,1.096,0.065,1.706c0,0.263-0.088,0.57-0.263,0.919c0,0.262,0.021,0.459,0.066,0.59
			c0.043,0.131,0.196,0.373,0.459,0.723l0.394-0.395c0.174-0.174,0.283-0.305,0.328-0.394c0.043-0.086,0.151-0.218,0.328-0.394
			c0.787-1.224,1.574-2.447,2.361-3.674c0.787-1.225,1.529-2.447,2.23-3.674c0.962-1.749,1.88-3.455,2.756-5.117
			c0.873-1.661,1.749-3.367,2.624-5.117c0.699-1.398,1.574-2.799,2.624-4.199c0.525-0.699,1.005-1.464,1.443-2.297
			c0.437-0.83,0.874-1.64,1.313-2.427c0.437-0.699,0.808-1.378,1.115-2.034c0.306-0.656,0.677-1.332,1.115-2.033
			c0.263-0.438,0.524-0.873,0.787-1.313c0.263-0.437,0.525-0.873,0.787-1.313c0.175-0.436,0.394-0.83,0.656-1.181
			c0.263-0.349,0.479-0.742,0.656-1.181c0.174-0.437,0.371-0.83,0.591-1.182c0.217-0.348,0.414-0.698,0.59-1.049
			c0.437-0.525,1.005-0.611,1.706-0.263c-0.177,0.263-0.308,0.524-0.394,0.787c-0.088,0.263-0.22,0.524-0.394,0.788
			c-0.263,0.438-0.416,0.875-0.46,1.312c-0.045,0.438-0.11,0.876-0.196,1.312v0.656c-0.177,1.139-0.481,2.188-0.919,3.149
			c-0.351,0.788-0.635,1.575-0.853,2.362c-0.22,0.787-0.547,1.531-0.984,2.23c-0.351,0.701-0.679,1.357-0.983,1.969
			c-0.308,0.612-0.679,1.225-1.115,1.836c-1.05,1.751-2.014,3.543-2.887,5.38c-0.876,1.837-1.794,3.631-2.756,5.38
			c-1.05,2.014-2.079,4.047-3.083,6.102c-1.007,2.057-2.254,4.002-3.74,5.839c-1.488,1.749-3.368,3.258-5.642,4.526
			c-2.276,1.268-4.593,1.684-6.954,1.247c-1.488-0.351-2.581-1.312-3.28-2.887c-0.177-0.524-0.373-1.05-0.591-1.575
			c-0.22-0.524-0.373-1.094-0.459-1.705c-0.525-2.887-0.787-5.816-0.787-8.791v-3.412c0.262-4.81,0.918-9.664,1.968-14.564
			c0.174-0.961,0.349-1.945,0.524-2.952c0.175-1.005,0.349-1.989,0.525-2.952c0.174-1.225,0.371-2.493,0.591-3.806
			c0.217-1.312,0.414-2.579,0.59-3.806c0.175-0.961,0.349-1.945,0.525-2.951c0.174-1.005,0.348-1.989,0.524-2.953
			c0.174-1.224,0.349-2.382,0.524-3.477c0.175-1.093,0.263-2.252,0.263-3.478v-0.655c-0.701,0.262-1.269,0.569-1.705,0.918
			c-0.177,0.088-0.351,0.308-0.525,0.656c-0.176,0.176-0.308,0.394-0.394,0.656c-0.088,0.262-0.22,0.481-0.394,0.656
			c-0.177,0.176-0.285,0.328-0.328,0.459c-0.045,0.131-0.153,0.285-0.328,0.459c-0.964,0.613-1.751,1.509-2.361,2.689
			c-0.613,1.182-1.227,2.254-1.837,3.215c-0.788,1.227-1.62,2.407-2.493,3.543c-0.876,1.138-1.751,2.318-2.625,3.543
			c-0.787,1.138-1.488,2.296-2.099,3.477c-0.613,1.182-1.227,2.385-1.837,3.609c-0.525,1.137-1.095,2.252-1.706,3.346
			c-0.613,1.094-1.138,2.209-1.574,3.346c0,0.088-0.046,0.131-0.132,0.131c-0.438,0.439-0.722,0.941-0.853,1.51
			c-0.131,0.569-0.285,1.16-0.459,1.771c-0.089,0.438-0.22,0.833-0.394,1.181c-0.177,0.352-0.351,0.701-0.525,1.051
			c-0.176,0.438-0.351,0.832-0.524,1.18c-0.177,0.352-0.177,0.744,0,1.182c0,0.176-0.089,0.438-0.263,0.787
			c-0.177,0.439-0.394,0.898-0.656,1.378c-0.263,0.481-0.524,0.983-0.787,1.509c-0.263,0.439-0.656,0.613-1.181,0.525
			c-0.525-0.175-1.05-0.086-1.575,0.262c-0.262,0.263-0.438,0.395-0.524,0.395c-0.524-0.087-0.984-0.021-1.378,0.196
			c-0.394,0.22-0.81,0.416-1.246,0.591c-0.701,0.35-1.357,0.481-1.969,0.393c-0.61-0.086-1.267-0.217-1.968-0.393
			c-0.437-0.086-0.83-0.525-1.181-1.313c-0.086-0.263-0.132-0.525-0.132-0.787c0-0.263-0.043-0.525-0.131-0.787
			c-0.086-0.699-0.151-1.333-0.197-1.902c-0.043-0.568-0.065-1.202-0.065-1.903c0-0.61-0.043-1.05-0.131-1.312
			c0-0.175,0.022-0.371,0.065-0.591c0.045-0.218,0.022-0.415-0.065-0.591c-0.175-1.136-0.263-2.251-0.263-3.346
			c0-1.093,0-2.208,0-3.346c0-0.525-0.043-0.919-0.131-1.182c-0.086-0.699-0.132-1.443-0.132-2.23s0-1.574,0-2.361v-3.149
			c-0.086-1.136-0.131-2.23-0.131-3.28s0-2.143,0-3.28c0-0.437,0-0.808,0-1.115c0-0.306-0.043-0.677-0.131-1.115v-0.919
			c0.176-1.748,0.308-3.543,0.394-5.379c0.088-1.838,0.219-3.675,0.394-5.512c0.088-1.049,0.176-2.119,0.263-3.215
			c0.088-1.092,0.219-2.164,0.394-3.215c0.088-0.437,0.176-0.896,0.262-1.377c0.089-0.48,0.22-0.939,0.395-1.378
			c0.088-0.611,0.524-1.005,1.312-1.181c1.749-0.263,3.323-0.043,4.724,0.656c0.175,0,0.263,0.088,0.263,0.262
			c0.174,0.351,0.414,0.613,0.722,0.787c0.306,0.177,0.59,0.352,0.853,0.525c0.086,0.262,0.175,0.547,0.263,0.853
			c0.086,0.308,0.174,0.591,0.263,0.853l0.262,0.263c1.05,0.524,1.661,1.443,1.837,2.755c0,0.788-0.022,1.598-0.065,2.428
			c-0.045,0.833,0.065,1.641,0.328,2.428c0.175,0.701,0.394,1.378,0.656,2.034c0.263,0.655,0.306,1.335,0.131,2.034
			c-0.088,0.963-0.153,1.859-0.196,2.689c-0.045,0.832-0.154,1.686-0.328,2.559c-0.177,1.05-0.328,2.078-0.459,3.084
			c-0.132,1.006-0.154,2.033-0.066,3.083c0,0.438,0.066,0.832,0.197,1.181c0.131,0.351,0.196,0.744,0.196,1.182
			s-0.045,0.897-0.131,1.377c-0.088,0.482-0.088,0.941,0,1.378c0.086,1.226,0.086,2.407,0,3.543c0,0.524,0,1.028,0,1.509
			c0,0.482,0.043,0.984,0.131,1.509c0.263,0,0.415-0.065,0.46-0.196c0.043-0.132,0.108-0.283,0.196-0.459
			c0.525-0.963,1.027-1.946,1.509-2.953c0.48-1.004,0.984-1.988,1.51-2.952c0.174-0.349,0.327-0.656,0.459-0.919
			c0.131-0.262,0.283-0.567,0.459-0.918c0.175-0.349,0.437-0.961,0.787-1.837c0.175-0.437,0.371-0.919,0.591-1.443
			c0.217-0.524,0.459-1.005,0.722-1.443c0.263-0.349,0.567-0.874,0.918-1.575l4.33-7.872c0.437-0.699,0.854-1.378,1.247-2.034
			s0.808-1.332,1.246-2.033c0.437-0.699,0.896-1.378,1.378-2.034c0.479-0.656,0.938-1.333,1.378-2.034
			c1.05-1.313,2.011-2.361,2.887-3.148c1.837-1.661,4.11-2.405,6.822-2.23h3.149c0.962-0.086,1.88,0.219,2.756,0.918
			c0.437,0.439,0.853,0.854,1.246,1.246c0.394,0.395,0.808,0.811,1.247,1.247c0.524,0.701,0.741,1.226,0.655,1.575
			c-0.088,0.438-0.088,0.809,0,1.115c0.086,0.307,0.218,0.678,0.394,1.115c0.438,1.312,0.677,2.932,0.722,4.854
			c0.043,1.925-0.022,3.631-0.196,5.117c-0.088,0.612-0.177,1.226-0.263,1.837C376.459,186.619,376.327,187.232,376.153,187.843z"/>
		<path d="M414.99,256.599l-1.313,1.312c-0.262,0.263-0.504,0.525-0.722,0.787c-0.219,0.264-0.547,0.438-0.983,0.525h-0.395
			c-0.438,0.438-0.918,0.742-1.442,0.918c-0.525,0.175-1.007,0.395-1.443,0.656c-1.227,0.699-2.407,1.094-3.543,1.182
			c-0.964,0.174-1.948,0.305-2.952,0.394c-1.007,0.086-1.991,0.175-2.952,0.263c-0.876,0.174-1.926,0.151-3.149-0.066
			c-1.227-0.219-2.275-0.504-3.149-0.853l-1.181-0.394c-0.086-0.088-0.151-0.176-0.197-0.263c-0.043-0.088-0.151-0.22-0.327-0.394
			c-0.962-0.701-1.684-1.488-2.165-2.361c-0.48-0.876-0.896-1.883-1.247-3.018l-0.394-1.182c-0.437-0.525-0.656-1.27-0.656-2.23
			c-0.262-2.975,0.132-5.818,1.182-8.529c1.925-4.812,4.635-9.185,8.135-13.121c0.611-0.699,1.201-1.355,1.771-1.969
			c0.567-0.61,1.115-1.267,1.64-1.968c1.136-1.224,2.297-2.382,3.478-3.478c1.181-1.092,2.382-2.164,3.608-3.215
			c0.873-0.698,1.705-1.354,2.493-1.967c0.787-0.611,1.574-1.268,2.361-1.969c0.525-0.349,0.787-0.873,0.787-1.574
			c-0.088-0.699-0.11-1.355-0.065-1.969c0.043-0.611,0.021-1.268-0.065-1.969c-0.088-0.961-0.088-1.922,0-2.887
			c0.086-0.961,0.174-1.922,0.263-2.887c0.086-0.61,0.131-1.201,0.131-1.771c0-0.567,0.043-1.202,0.131-1.903l-0.524,0.264
			c-0.438,0.35-0.81,0.678-1.115,0.983c-0.308,0.308-0.636,0.591-0.984,0.853c-1.226,1.139-2.712,2.057-4.461,2.756
			c-0.438,0.176-0.832,0.328-1.181,0.459c-0.351,0.131-0.744,0.285-1.182,0.459c-0.351,0.177-0.655,0.264-0.918,0.264
			c-2.362,0.176-4.593,0-6.692-0.525c-1.049-0.438-2.013-1.005-2.886-1.706l-1.575-1.574c-1.749-1.487-2.798-3.235-3.148-5.249
			c-0.175-1.049-0.283-2.119-0.328-3.215c-0.043-1.092-0.021-2.207,0.065-3.346c0.176-1.486,0.373-2.887,0.59-4.199
			c0.22-1.312,0.505-2.667,0.854-4.066c0.351-1.838,0.918-3.564,1.705-5.184c0.788-1.617,1.618-3.258,2.493-4.92
			c0.263-0.438,0.525-0.831,0.787-1.182c0.263-0.348,0.48-0.742,0.656-1.181c0.611-0.962,1.268-1.618,1.969-1.968
			c0.086,0,0.131-0.021,0.131-0.066c0-0.043,0.043-0.065,0.131-0.065c0.349-0.349,0.677-0.677,0.984-0.983
			c0.306-0.307,0.634-0.591,0.984-0.854c0.349-0.262,0.722-0.479,1.115-0.656c0.394-0.174,0.765-0.437,1.115-0.787
			c0.086-0.086,0.349-0.262,0.787-0.525c0.437-0.086,0.808-0.174,1.115-0.262c0.306-0.086,0.677-0.174,1.115-0.263
			c0.175,0,0.306-0.021,0.394-0.065c0.087-0.043,0.218-0.065,0.394-0.065c0.699,0.088,1.398,0.131,2.1,0.131
			c0.699,0,1.398,0.046,2.1,0.132c2.273,0.524,4.547,1.312,6.823,2.361c0.174,0.176,0.394,0.285,0.656,0.328
			c0.262,0.045,0.479,0.111,0.655,0.197c0.611,0.176,1.005,0.393,1.182,0.656c0.349,0.35,0.305,0.655-0.132,0.918
			c-0.701,0.438-1.312,0.481-1.837,0.131c-0.438-0.262-0.918-0.502-1.443-0.722c-0.524-0.218-1.05-0.414-1.574-0.591
			c-0.876-0.348-1.882-0.305-3.018,0.132c-1.575,0.787-3.019,1.837-4.33,3.149c-0.351,0.262-0.656,0.57-0.919,0.918
			c-0.263,0.351-0.481,0.744-0.656,1.182c-0.088,0.176-0.308,0.438-0.655,0.787c-0.613,0.438-1.05,1.094-1.313,1.968
			c-0.263,0.701-0.701,1.443-1.313,2.23c-0.438,0.701-0.787,1.489-1.05,2.362c-0.176,0.701-0.394,1.4-0.655,2.1
			c-0.263,0.701-0.525,1.4-0.788,2.1c-0.176,0.438-0.327,0.875-0.459,1.312c-0.131,0.438-0.196,0.876-0.196,1.312
			c-0.089,0.177-0.132,0.352-0.132,0.525c0,0.176-0.045,0.351-0.131,0.525c-0.438,1.488-0.656,2.887-0.656,4.198
			c0,0.438-0.176,1.095-0.524,1.968c-0.351,0.876-0.482,1.575-0.394,2.1c0,0.177-0.022,0.352-0.066,0.525
			c-0.045,0.176-0.065,0.35-0.065,0.524c0,0.177-0.088,0.351-0.262,0.524c-0.177,0.177-0.22,0.352-0.132,0.525
			c0.175,0.525,0.306,0.875,0.394,1.05c0.086,0.438,0.175,0.833,0.263,1.181c0.086,0.351,0.131,0.744,0.131,1.182
			c0.175,0.612,0.48,0.963,0.919,1.049c0.787,0.352,1.617,0.395,2.493,0.132c1.312-0.263,2.404-0.788,3.28-1.575
			c1.749-1.224,3.192-2.71,4.33-4.461c0.437-0.699,0.873-1.377,1.312-2.033c0.437-0.656,0.831-1.333,1.182-2.034l0.131-0.263
			c0.873-1.224,1.464-2.536,1.771-3.936c0.306-1.398,0.545-2.799,0.722-4.199c0.086-1.398,0.349-2.756,0.787-4.068
			c0.263-0.787,0.502-1.595,0.722-2.427c0.217-0.831,0.414-1.641,0.591-2.428c0.086-0.263,0.108-0.546,0.065-0.853
			c-0.045-0.306-0.022-0.634,0.065-0.984c0.524-0.349,0.918-0.568,1.181-0.656c0.873-0.262,1.706-0.217,2.493,0.131
			c0.787,0.439,1.181,1.096,1.181,1.969c-0.176,0.787-0.176,1.555,0,2.297c0.175,0.744,0.394,1.508,0.656,2.295
			c0.349,1.313,0.524,2.801,0.524,4.462c0,1.05,0.044,2.079,0.132,3.083c0.086,1.008,0.217,1.991,0.394,2.953
			c0.086,0.875,0.174,1.729,0.263,2.559c0.086,0.832,0.131,1.729,0.131,2.689c0,0.263,0.021,0.547,0.065,0.854
			c0.043,0.307,0.065,0.635,0.065,0.983c0.087,0.701,0.109,1.357,0.066,1.968c-0.046,0.613-0.023,1.27,0.065,1.969
			c0.174,1.751,0.131,3.237-0.132,4.461c0,0.088,0.043,0.22,0.132,0.395c0.262-0.264,0.394-0.35,0.394-0.264
			c2.973-2.709,5.904-5.51,8.791-8.396c0.962-0.962,1.88-1.924,2.756-2.887c0.873-0.962,1.791-1.924,2.755-2.887
			c0.175-0.175,0.349-0.306,0.525-0.395c0.174-0.086,0.348-0.217,0.524-0.393c0.174-0.086,0.349-0.175,0.524-0.264
			c0.175-0.086,0.395-0.086,0.656,0c0.349,0.089,0.611,0.439,0.787,1.051c-0.176,0.438-0.438,0.832-0.787,1.181
			c-0.351,0.351-0.701,0.744-1.05,1.181c-0.351,0.351-0.655,0.656-0.918,0.918c-0.263,0.264-0.482,0.613-0.656,1.051
			c-0.177,0.438-0.394,0.832-0.656,1.181c-0.262,0.351-0.481,0.701-0.656,1.05c-0.176,0.35-0.351,0.678-0.524,0.984
			c-0.177,0.307-0.394,0.59-0.656,0.853c-0.351,0.438-0.701,0.81-1.05,1.115c-0.351,0.308-0.701,0.679-1.05,1.115
			c-0.176,0.177-0.351,0.263-0.524,0.263c-2.362,1.75-4.375,3.936-6.036,6.561c-0.176,0.176-0.481,0.438-0.918,0.787
			c-0.263,0.176-0.525,0.285-0.787,0.328c-0.263,0.045-0.525,0.154-0.787,0.328c-0.613,0.351-0.964,0.832-1.05,1.443
			c-0.177,0.787-0.177,1.574,0,2.361c0.086,0.613,0.131,1.203,0.131,1.771c0,0.57,0,1.16,0,1.771c0,0.964-0.022,1.947-0.065,2.952
			c-0.045,1.007-0.111,1.991-0.197,2.952c-0.176,1.227-0.308,2.473-0.394,3.74c-0.088,1.269-0.045,2.514,0.132,3.739
			c0.086,0.437,0.108,0.83,0.065,1.181c-0.045,0.349-0.065,0.742-0.065,1.182c0,0.436,0,0.896,0,1.377
			c0,0.48-0.046,0.939-0.132,1.378c0,0.788,0,1.552,0,2.296c0,0.742-0.088,1.465-0.263,2.166c-0.088,0.436-0.176,0.896-0.262,1.377
			c-0.089,0.48-0.177,0.939-0.263,1.378c-0.263,1.398-0.701,2.624-1.313,3.674c-0.176,0.263-0.307,0.546-0.394,0.853
			c-0.088,0.307-0.176,0.591-0.262,0.854c-0.089,0.873-0.439,1.748-1.05,2.624c-0.351,0.524-0.656,1.05-0.919,1.575
			c-0.263,0.524-0.613,1.004-1.05,1.443c-0.176,0.348-0.262,0.61-0.262,0.787c-0.089,0.262-0.132,0.479-0.132,0.656
			C415.121,256.248,415.076,256.422,414.99,256.599z M412.104,220.777c-0.263,0.176-0.57,0.351-0.919,0.525
			c-0.438,0.524-0.918,0.983-1.443,1.377c-0.524,0.395-1.049,0.811-1.574,1.246c-0.176,0.178-0.328,0.309-0.459,0.395
			c-0.132,0.088-0.285,0.219-0.459,0.394c-0.613,0.701-1.204,1.378-1.771,2.034c-0.57,0.656-1.161,1.334-1.771,2.033
			c-0.613,0.787-1.227,1.529-1.837,2.23c-0.613,0.699-1.227,1.443-1.837,2.23c-0.351,0.438-0.701,0.854-1.05,1.247
			c-0.351,0.394-0.613,0.853-0.787,1.378c-0.701,1.313-1.488,2.492-2.362,3.543c-0.351,0.436-0.656,0.873-0.918,1.312
			c-0.263,0.437-0.394,0.919-0.394,1.443c-0.263,1.837-0.745,3.674-1.443,5.511c-0.177,0.611-0.328,1.182-0.46,1.706
			c-0.131,0.524-0.11,1.05,0.066,1.575c0,0.174-0.046,0.305-0.132,0.393c-0.701,0.699-0.83,1.574-0.394,2.625
			c0.175,0.348,0.306,0.676,0.394,0.984c0.086,0.305,0.218,0.633,0.394,0.983c0.175,0.437,0.394,0.853,0.656,1.247
			c0.263,0.393,0.611,0.721,1.05,0.983c0.349,0.263,0.83,0.699,1.443,1.313c0.699,0.787,1.66,1.093,2.887,0.919
			c1.66-0.264,3.061-0.788,4.198-1.575c1.313-0.876,2.428-1.882,3.347-3.019c0.918-1.137,1.771-2.318,2.559-3.542
			c0.174-0.263,0.262-0.524,0.262-0.787s0.043-0.481,0.132-0.656c0.086-0.438,0.217-1.007,0.394-1.706
			c0.174-0.701,0.306-1.181,0.394-1.443c0.086-0.613,0.151-1.226,0.196-1.837c0.044-0.612,0.109-1.226,0.197-1.837
			c0.086-0.613,0.151-1.227,0.197-1.837c0.043-0.612,0.108-1.226,0.196-1.837c0-0.439,0.021-0.811,0.065-1.115
			c0.043-0.308,0.065-0.679,0.065-1.115c0.175-0.964,0.306-1.902,0.394-2.821c0.087-0.919,0.218-1.859,0.395-2.821
			c0.086-0.787,0.131-1.574,0.131-2.361s0.086-1.574,0.263-2.362c0.174-1.136,0.196-2.273,0.065-3.411
			C412.3,223.184,412.189,222.004,412.104,220.777z M416.302,250.825l-0.131,0.132h0.131V250.825z"/>
	</g>
</g>
</svg>
