<?xml version="1.0" encoding="utf-8"?>
<!-- Generator: Adobe Illustrator 15.1.0, SVG Export Plug-In . SVG Version: 6.00 Build 0)  -->
<!DOCTYPE svg PUBLIC "-//W3C//DTD SVG 1.1//EN" "http://www.w3.org/Graphics/SVG/1.1/DTD/svg11.dtd">
<svg version="1.1" id="Layer_1" xmlns="http://www.w3.org/2000/svg" xmlns:xlink="http://www.w3.org/1999/xlink" x="0px" y="0px"
	 width="233px" height="120px" viewBox="0 0 233 120" enable-background="new 0 0 233 120" xml:space="preserve">
<g>
	<path fill="#A88A40" d="M80.902,57.394c0.866-0.533,1.65-0.85,2.35-0.95c0.7-0.1,1.05,0.317,1.05,1.25
		c-0.067,0-0.267,0.35-0.6,1.05c-0.334,0.7-0.734,1.567-1.2,2.6c-0.467,1.034-0.984,2.184-1.55,3.449
		c-0.567,1.268-1.084,2.468-1.55,3.601c-0.467,1.134-0.884,2.117-1.25,2.95c-0.367,0.834-0.584,1.35-0.65,1.55
		c-0.734,1.867-1.25,3.8-1.55,5.8c-0.3,2-0.917,3.9-1.85,5.7c-0.467,0.935-0.934,1.817-1.4,2.649c-0.467,0.834-0.934,1.717-1.4,2.65
		c-0.334,0.666-0.717,1.25-1.15,1.75c-0.435,0.5-0.917,0.982-1.45,1.45c-1.134,1.065-2.35,1.933-3.65,2.601
		c-1.3,0.665-2.75,1.032-4.35,1.1c-0.2,0-0.367,0.033-0.5,0.1c-2,0.801-3.967,0.801-5.9,0c-0.334-0.135-0.7-0.268-1.1-0.4
		c-1.467-0.334-2.717-0.899-3.75-1.699c-1.034-0.801-1.917-1.801-2.65-3c-0.867-1.467-1.617-2.95-2.25-4.45
		c-0.634-1.5-1.25-3.016-1.85-4.55c-1-2.466-1.85-4.95-2.55-7.45c-0.7-2.5-1.417-5.016-2.15-7.55
		c-0.535-1.732-1.25-3.333-2.15-4.801c-0.9-1.465-2.05-2.765-3.45-3.899c-0.535-0.466-1.1-0.85-1.7-1.15
		c-0.6-0.3-1.267-0.616-2-0.95l-0.3,0.6c-0.2,1.134-0.4,2.267-0.6,3.4c-0.2,1.134-0.367,2.267-0.5,3.4c-0.2,1.467-0.534,2.801-1,4
		c-0.734,1.935-1.167,4.067-1.3,6.4c-0.135,2.334-0.268,4.534-0.4,6.6c-0.134,1.935-0.284,3.9-0.45,5.9
		c-0.167,2-0.35,3.965-0.55,5.9c0,0.532-0.017,1.032-0.05,1.5c-0.034,0.465-0.084,0.965-0.15,1.5
		c-0.134,0.865-0.234,1.715-0.3,2.549c-0.067,0.834-0.134,1.684-0.2,2.551c0,0.332-0.067,0.565-0.2,0.699
		c-0.134,0.133-0.3,0.266-0.5,0.4c-0.334,0.2-0.6,0.1-0.8-0.3c-0.267-0.399-0.5-0.734-0.7-1c-0.067,0.532-0.3,0.815-0.7,0.851
		c-0.4,0.032-0.635,0.282-0.7,0.75c-0.734-0.535-1.367-1.085-1.9-1.65c-0.535-0.567-0.9-1.285-1.1-2.15
		c-0.734-3.534-1.15-7.15-1.25-10.85c-0.1-3.7-0.117-7.35-0.05-10.95c0-3.399-0.035-6.8-0.1-10.2c-0.067-3.4-0.116-6.8-0.15-10.2
		c-0.033-3.4,0-6.8,0.1-10.2c0.1-3.4,0.316-6.8,0.65-10.2c0.2-1.733,0.433-3.466,0.7-5.2c0.266-1.733,0.5-3.466,0.7-5.2
		c0.133-0.933,0.233-1.9,0.3-2.9c0.066-1,0.166-2,0.3-3c0.133-1.133,0.383-2.233,0.75-3.3c0.365-1.066,0.783-2.133,1.25-3.2
		c0.2-0.465,0.383-0.733,0.55-0.8c0.166-0.066,0.516-0.066,1.05,0c1.533,0.334,2.833,1.3,3.9,2.9c0.333,0.534,0.565,1.117,0.7,1.75
		c0.133,0.634,0.266,1.25,0.4,1.85l1.2,5.1l0.3,1.8c0.066,0.334,0.133,0.617,0.2,0.85c0.065,0.234,0.166,0.484,0.3,0.75
		c0.066,0.067,0.166,0.1,0.3,0.1c0-0.133,0.065-0.266,0.2-0.4c0.8-1.666,1.85-3.083,3.15-4.25c1.3-1.166,2.715-2.183,4.25-3.05
		c1.065-0.6,2.15-1.15,3.25-1.65c1.1-0.5,2.25-0.916,3.45-1.25c1.266-0.333,2.733-0.4,4.4-0.2c0.333,0.067,0.7,0.134,1.1,0.2
		c0.4,0.067,0.8,0.1,1.2,0.1c0.933,0,1.733,0.217,2.4,0.65c0.666,0.434,1.333,0.917,2,1.45c1.065,0.734,1.9,1.734,2.5,3
		c0.266,0.4,0.483,0.834,0.65,1.3c0.166,0.467,0.316,0.934,0.45,1.4c0.866,2.134,1.116,4.284,0.75,6.45
		c-0.367,2.167-0.917,4.317-1.65,6.45c-0.935,2.535-2.1,4.95-3.5,7.25c-1.4,2.3-3.167,4.317-5.3,6.05
		c-0.4,0.334-0.767,0.567-1.1,0.7c-1.534,0.867-3.1,1.667-4.7,2.4c-1.6,0.734-3.267,1.3-5,1.7c-0.134,0.134-0.334,0.234-0.6,0.3
		c1.2,0.734,2.3,1.435,3.3,2.1c0.666,0.535,1.3,1.05,1.9,1.55c0.6,0.5,1.232,1.017,1.9,1.55c0.4,0.335,0.8,0.718,1.2,1.149
		c0.4,0.436,0.8,0.851,1.2,1.25c0.065,0,0.133,0.035,0.2,0.101c1,1.335,1.916,2.667,2.75,4c0.833,1.335,1.516,2.767,2.05,4.3
		c0.133,0.535,0.3,1.035,0.5,1.5c0.2,0.467,0.366,0.967,0.5,1.5c0.065,0.2,0.1,0.467,0.1,0.801c0.133,0.533,0.266,1.017,0.4,1.449
		c0.133,0.435,0.266,0.918,0.4,1.45l1.5,4.8c0.133,0.4,0.266,0.801,0.4,1.2c0.133,0.399,0.266,0.8,0.4,1.2
		c0.133,0.4,0.232,0.8,0.3,1.199c0.065,0.4,0.065,0.801,0,1.201c0,1.199,0.433,2.133,1.3,2.799c0.2,0.201,0.416,0.4,0.65,0.601
		c0.232,0.2,0.482,0.399,0.75,0.601c0.533,0.399,1.166,0.532,1.9,0.399c0.133-0.067,0.366-0.101,0.7-0.101
		c0.8,0.066,1.483-0.084,2.05-0.449c0.565-0.367,1.116-0.817,1.65-1.35c2.133-2.468,3.8-5.066,5-7.801
		c1.8-4.133,3.616-8.215,5.45-12.25c1.833-4.033,3.683-8.082,5.55-12.15C80.568,58.128,80.768,57.661,80.902,57.394z M29.302,55.594
		c1.133-0.533,2.233-1.05,3.3-1.55c1.066-0.5,2.133-1.016,3.2-1.55c1.133-0.533,2.25-1.15,3.35-1.85s2.05-1.55,2.85-2.55
		c0.865-1.066,1.666-2.133,2.4-3.2c0.733-1.065,1.465-2.166,2.2-3.3c0.333-0.4,0.55-0.816,0.65-1.25
		c0.1-0.433,0.183-0.916,0.25-1.45c0.133-1.266,0.25-2.516,0.35-3.75c0.1-1.233,0.216-2.516,0.35-3.85
		c0.066-0.266,0.1-0.516,0.1-0.75c0-0.233,0.033-0.483,0.1-0.75c0.533-2.2,0.7-4.233,0.5-6.1c-0.2-1.4-0.7-2.7-1.5-3.9
		c-0.535-0.666-1.134-0.9-1.8-0.7c-0.4,0.134-0.8,0.234-1.2,0.3c-0.4,0.067-0.767,0.167-1.1,0.3c-0.667,0.268-1.317,0.535-1.95,0.8
		c-0.634,0.267-1.25,0.534-1.85,0.8c-2.6,1.2-4.567,3.067-5.9,5.6c-0.334,0.667-0.6,1.334-0.8,2c-0.2,0.667-0.435,1.367-0.7,2.1
		c-0.067,0.134-0.134,0.284-0.2,0.45c-0.067,0.167-0.134,0.317-0.2,0.45c-0.4,0.867-0.8,1.734-1.2,2.6c-0.4,0.867-0.8,1.734-1.2,2.6
		c-0.134,0.2-0.2,0.534-0.2,1c0.066,1.334,0.033,2.634-0.1,3.9c-0.135,1.267-0.268,2.567-0.4,3.9c-0.134,0.935-0.15,1.884-0.05,2.85
		c0.1,0.967,0.05,1.917-0.15,2.85c-0.134,0.667-0.134,1.334,0,2c0.133,0.667,0.233,1.367,0.3,2.1c0.133,0,0.233-0.016,0.3-0.05
		C29.068,55.611,29.168,55.594,29.302,55.594z"/>
	<path fill="#A88A40" d="M97.401,73.894c-0.734-0.866-1.435-1.665-2.1-2.399c-0.867-0.801-1.717-1.616-2.55-2.451
		c-0.834-0.832-1.684-1.649-2.55-2.449c-1.6-1.4-2.967-2.801-4.1-4.2c-0.934-1.133-1.817-2.25-2.65-3.35s-1.616-2.283-2.35-3.55
		c-0.933-1.866-1.5-3.966-1.7-6.3c0-0.732,0.1-1.465,0.3-2.2c0.4-2.333,1.435-4.433,3.1-6.3c0.733-0.933,1.733-1.6,3-2
		c0.733-0.2,1.433-0.315,2.1-0.35c0.666-0.033,1.333,0.084,2,0.35c0.533,0.135,0.9,0.234,1.1,0.3c0.666,0.134,1.25,0.35,1.75,0.65
		s1.016,0.617,1.55,0.95c0.933,0.6,0.9,1.134-0.1,1.6c-0.467,0.135-0.935,0.3-1.4,0.5c-0.467,0.2-0.967,0.334-1.5,0.4
		c-0.334,0.134-0.667,0.3-1,0.5c-0.334,0.4-0.667,0.784-1,1.15c-0.334,0.367-0.567,0.817-0.7,1.35c-0.067,0.2-0.134,0.384-0.2,0.55
		c-0.067,0.167-0.167,0.35-0.3,0.55c-0.334,0.734-0.4,1.6-0.2,2.6c0.133,0.334,0.25,0.634,0.35,0.9c0.1,0.268,0.283,0.535,0.55,0.8
		c0.065,0.067,0.1,0.134,0.1,0.2c0.266,0.6,0.633,1.135,1.1,1.6c0.466,0.467,0.9,0.967,1.3,1.5c0.133,0.134,0.3,0.285,0.5,0.45
		c0.2,0.167,0.366,0.317,0.5,0.45c0.933,0.867,1.883,1.685,2.85,2.45c0.965,0.767,1.916,1.617,2.85,2.55
		c0.533,0.535,1.033,1.067,1.5,1.6c0.466,0.535,0.966,1.068,1.5,1.601c0.333,0.335,0.633,0.7,0.9,1.101
		c0.266,0.399,0.565,0.767,0.9,1.1c0.2,0.199,0.4,0.385,0.6,0.55c0.2,0.167,0.4,0.351,0.6,0.55c0.533-0.266,1.033-0.633,1.5-1.1
		c0.2-0.133,0.433-0.333,0.7-0.6c0.533-0.334,0.983-0.717,1.35-1.15c0.366-0.434,0.75-0.883,1.15-1.35
		c0.333-0.334,0.666-0.633,1-0.9c0.333-0.266,0.666-0.566,1-0.9c0.533-0.533,1.083-1.05,1.65-1.55c0.566-0.5,1.05-1.083,1.45-1.75
		c0.133-0.133,0.25-0.25,0.35-0.35c0.1-0.1,0.215-0.215,0.35-0.35c0.333-0.333,0.733-0.4,1.2-0.2c0.266,0.134,0.533,0.217,0.8,0.25
		c0.266,0.034,0.566,0.084,0.9,0.15c0.533,0.2,0.633,0.534,0.301,1l-0.301,0.3c-0.199,0.2-0.316,0.45-0.35,0.75
		c-0.035,0.3-0.217,0.518-0.55,0.65c-0.267,0.067-0.5,0.2-0.7,0.4c-0.2,0.2-0.435,0.4-0.7,0.6c-0.334,0.199-0.6,0.467-0.8,0.8
		c-0.2,0.335-0.435,0.634-0.7,0.899c-0.134,0.135-0.267,0.268-0.4,0.4c-0.134,0.135-0.267,0.268-0.4,0.4c-0.2,0.268-0.5,0.6-0.9,1
		c-0.268,0.467-0.667,0.934-1.2,1.4c-0.2,0.134-0.384,0.283-0.55,0.449c-0.167,0.168-0.285,0.418-0.35,0.75
		c0,0.067-0.05,0.135-0.15,0.2c-0.1,0.067-0.185,0.134-0.25,0.2c-0.334,0.199-0.535,0.334-0.6,0.4
		c-0.334,0.334-0.634,0.649-0.9,0.949c-0.268,0.301-0.567,0.617-0.9,0.95c-0.4,0.267-0.4,0.634,0,1.101
		c0.133,0.199,0.266,0.399,0.4,0.6c0.133,0.199,0.266,0.4,0.4,0.6c0.133,0.135,0.215,0.268,0.25,0.4
		c0.033,0.135,0.116,0.268,0.25,0.4c0.533,0.6,0.916,1.25,1.15,1.949c0.233,0.7,0.516,1.418,0.85,2.15c0.2,0.8,0.266,1.5,0.2,2.1
		c-0.067,0.668,0.033,1.334,0.3,2c0.465,0.935,0.75,1.967,0.85,3.1c0.1,1.135,0.083,2.268-0.05,3.4
		c-0.134,1.133-0.317,2.266-0.55,3.4c-0.234,1.133-0.484,2.166-0.75,3.1c-0.667,2.133-1.667,3.816-3,5.051
		c-1.334,1.232-2.767,2.549-4.3,3.949c-0.934,0.934-2.2,1.533-3.8,1.801c-1.6,0.266-3,0.365-4.2,0.299
		c-1.467-0.134-2.75-0.533-3.85-1.199c-1.1-0.668-2.15-1.5-3.15-2.5c-0.134-0.268-0.334-0.435-0.6-0.5
		c-0.2-0.135-0.4-0.285-0.6-0.45c-0.2-0.167-0.367-0.384-0.5-0.649c-0.2-0.335-0.467-0.601-0.8-0.801
		c-0.267-0.199-0.467-0.566-0.6-1.1c-0.467-2.535-0.268-5.15,0.6-7.85c0.866-2.701,2.166-5.116,3.9-7.25
		c0.266-0.266,0.5-0.551,0.7-0.851c0.2-0.3,0.4-0.616,0.6-0.95c0.333-0.332,0.616-0.666,0.85-1c0.233-0.332,0.516-0.666,0.85-1
		c0.732-0.732,1.45-1.465,2.15-2.199c0.7-0.733,1.383-1.5,2.05-2.301c0.133-0.133,0.266-0.266,0.4-0.4
		C97.133,74.16,97.266,74.027,97.401,73.894z M99.401,76.693c-0.467,0.2-0.867,0.484-1.2,0.85c-0.334,0.367-0.667,0.718-1,1.051
		c-0.267,0.334-0.5,0.617-0.7,0.85c-0.2,0.234-0.467,0.484-0.8,0.75c-0.2,0.2-0.417,0.4-0.65,0.6
		c-0.234,0.201-0.45,0.436-0.65,0.701c-0.067,0.199-0.3,0.434-0.7,0.699c-0.734,0.535-1.367,1.1-1.9,1.7
		c-0.535,0.601-1.067,1.234-1.6,1.899c-0.267,0.335-0.517,0.65-0.75,0.951c-0.234,0.299-0.417,0.649-0.55,1.049v0.101
		c-0.268,0.266-0.435,0.565-0.5,0.899c-0.067,0.334-0.167,0.666-0.3,1c-0.134,0.4-0.234,0.783-0.3,1.15
		c-0.067,0.365-0.167,0.75-0.3,1.15c-0.2,0.732-0.3,1.482-0.3,2.25c0,0.766,0.033,1.516,0.1,2.25c0.065,0.533,0.3,0.949,0.7,1.25
		c0.4,0.3,0.866,0.383,1.4,0.25c0.333,0,0.7-0.067,1.1-0.2c0.133-0.067,0.266-0.101,0.4-0.101c0.133,0,0.266-0.033,0.4-0.1
		c1.2-0.199,2.266-0.635,3.2-1.3c0.533-0.335,1.05-0.667,1.55-1c0.5-0.335,1.016-0.667,1.55-1c0.333-0.267,0.766-0.468,1.3-0.601
		c0.4-0.134,0.75-0.299,1.05-0.5c0.3-0.199,0.616-0.434,0.95-0.699c0.2-0.2,0.433-0.5,0.7-0.9c0.533-1.467,0.766-2.867,0.7-4.199
		c0-1.066-0.05-2.133-0.15-3.201c-0.1-1.064-0.317-2.1-0.65-3.1c-0.067-0.133-0.1-0.266-0.1-0.4c0-0.133-0.035-0.266-0.1-0.399
		c-0.267-1.2-0.8-2.366-1.6-3.5L99.401,76.693z"/>
	<path fill="#A88A40" d="M115.5,37.094c0.267-0.266,0.6-0.333,1-0.2c0.933,0,1.866,0.1,2.8,0.3c0.665,0.2,1.032,0.6,1.1,1.2
		c0.133,0.667,0.433,1.134,0.9,1.4c0.399,0.267,0.633,0.6,0.7,1c0.133,0.467,0.3,0.9,0.5,1.3c0.199,0.4,0.433,0.8,0.699,1.2
		c0.333,0.535,0.533,1.067,0.601,1.6c0.065,0.734,0.333,1.534,0.8,2.4c0.333,0.867,0.533,1.817,0.6,2.85
		c0.066,1.034,0.166,2.017,0.301,2.95c0.266,1.934,0.5,3.9,0.699,5.9c0.2,2,0.466,3.967,0.801,5.9c0.133,1,0.383,1.984,0.75,2.95
		c0.365,0.967,0.615,1.984,0.75,3.05c0.133,1.2,0.215,2.417,0.25,3.649c0.032,1.234,0.215,2.418,0.55,3.551
		c0.133,0.334,0.232,0.684,0.3,1.05c0.065,0.367,0.1,0.75,0.1,1.149c-0.066,0.268-0.134,0.518-0.199,0.75
		c-0.067,0.234-0.067,0.518,0,0.851c0,0.267,0.05,0.5,0.149,0.7c0.101,0.199,0.183,0.434,0.25,0.699
		c0.133,0.335,0.25,0.635,0.351,0.9c0.1,0.268,0.315,0.467,0.649,0.6c0.2,0.135,0.3,0.301,0.3,0.5c0,0.201,0.101,0.367,0.301,0.5
		c0.332-0.133,0.5-0.232,0.5-0.299c0.399-0.533,0.665-0.934,0.8-1.201c0.333-0.6,0.633-1.199,0.899-1.799
		c0.266-0.601,0.533-1.166,0.801-1.701c0.465-0.932,0.899-1.832,1.3-2.699c0.399-0.865,0.833-1.766,1.3-2.7
		c0.065-0.133,0.115-0.3,0.15-0.5c0.032-0.2,0.082-0.366,0.149-0.5c0.133-0.466,0.283-0.933,0.45-1.399
		c0.166-0.467,0.315-0.934,0.45-1.4c0.266-0.865,0.516-1.7,0.75-2.5c0.232-0.801,0.516-1.633,0.85-2.5
		c0.133-0.4,0.25-0.801,0.351-1.2c0.1-0.399,0.215-0.8,0.35-1.2c0.133-0.332,0.1-0.732-0.1-1.199c-0.4-0.533-0.75-1.084-1.051-1.65
		c-0.3-0.566-0.617-1.15-0.949-1.75c-0.468-1.133-0.734-2.133-0.801-3c-0.134-1.133-0.234-2.25-0.3-3.35
		c-0.067-1.1-0.1-2.216-0.1-3.35c0-0.533,0.065-1.1,0.2-1.7c0.133-0.6,0.266-1.166,0.399-1.7c0.133-0.733,0.315-1.433,0.55-2.1
		c0.233-0.666,0.551-1.3,0.95-1.9c0.2-0.4,0.433-0.783,0.7-1.15c0.266-0.366,0.533-0.716,0.8-1.05c0.4-0.465,0.933-0.7,1.601-0.7
		c0.465,0.067,0.933,0.067,1.399,0c0.533-0.066,1.05-0.05,1.55,0.05s1.016,0.15,1.551,0.15c0.465,0,0.865,0.267,1.199,0.8
		c0.533,0.8,0.916,1.717,1.15,2.75c0.232,1.034,0.35,2.017,0.35,2.95c-0.066,0.667-0.217,1.285-0.449,1.85
		c-0.234,0.567-0.418,1.15-0.551,1.75c-0.134,0.534-0.25,1.084-0.35,1.65c-0.1,0.567-0.217,1.117-0.35,1.65
		c-0.2,0.667-0.484,1.3-0.851,1.9c-0.367,0.6-0.617,1.234-0.75,1.9c-0.134,1.067-0.534,2-1.2,2.8c0.2,0.867,0.601,1.6,1.2,2.201
		c0.133,0.134,0.25,0.267,0.351,0.399c0.1,0.134,0.183,0.267,0.25,0.399c0.332,0.867,0.815,1.535,1.449,2
		c0.633,0.468,1.316,0.936,2.051,1.4c0.399,0.334,0.899,0.4,1.5,0.2c1.865-0.665,3.5-1.7,4.899-3.101
		c0.4-0.332,0.783-0.699,1.15-1.1c0.365-0.4,0.683-0.865,0.95-1.4c0.065-0.133,0.165-0.266,0.3-0.4c0.333-0.4,0.649-0.8,0.95-1.2
		c0.3-0.4,0.582-0.833,0.85-1.3c0.333-0.466,0.716-0.783,1.15-0.95c0.433-0.166,0.883-0.115,1.35,0.15
		c0.065,0.067,0.133,0.1,0.2,0.1c0.065,0,0.165,0.035,0.3,0.1c0,0.2,0.033,0.367,0.1,0.5c0.2,0.467,0.133,0.9-0.199,1.3
		c-0.135,0.134-0.218,0.284-0.25,0.45c-0.035,0.167-0.117,0.317-0.25,0.45c-0.335,0.4-0.601,0.817-0.801,1.25
		c-0.199,0.434-0.5,0.816-0.899,1.149c-0.268,0.734-0.685,1.284-1.25,1.649c-0.567,0.367-1.117,0.818-1.65,1.351
		c-0.134,0.134-0.234,0.2-0.3,0.2c-0.334,0.066-0.617,0.167-0.85,0.3c-0.234,0.134-0.484,0.267-0.75,0.399
		c-1,0.601-2.067,1.085-3.2,1.451c-1.135,0.367-2.268,0.649-3.4,0.85c-0.467,0.066-0.917,0.066-1.35,0
		c-0.435-0.066-0.851-0.166-1.25-0.301c-0.667-0.199-1.3-0.415-1.9-0.649c-0.6-0.233-1.2-0.483-1.8-0.75
		c-0.268-0.133-0.435-0.2-0.5-0.2c-0.6,0.4-0.8,0.935-0.6,1.6c0.065,0.201,0.032,0.436-0.101,0.701
		c-0.334,0.533-0.517,1.1-0.55,1.699c-0.034,0.6-0.185,1.168-0.45,1.7c-0.734,1.601-1.484,3.185-2.25,4.75
		c-0.767,1.567-1.55,3.117-2.35,4.649c-0.135,0.335-0.25,0.635-0.351,0.9c-0.1,0.268-0.217,0.535-0.35,0.801
		c-0.334,0.6-0.734,1.033-1.2,1.299c-0.334,0.201-0.649,0.436-0.95,0.701c-0.3,0.267-0.649,0.467-1.05,0.6
		c-0.067,0-0.1,0.034-0.1,0.1c-0.335,0.334-0.718,0.6-1.15,0.801c-0.435,0.199-0.85,0.465-1.25,0.799c-1,0.733-2.1,1.016-3.3,0.851
		c-1.2-0.167-2.2-0.617-3-1.351c-1.467-1.266-2.5-2.732-3.1-4.399c-0.268-0.532-0.468-1.101-0.601-1.7
		c-0.134-0.6-0.267-1.199-0.399-1.8c-0.067-0.065-0.101-0.165-0.101-0.3c-0.334-0.934-0.567-1.916-0.7-2.95
		c-0.134-1.032-0.367-2.016-0.699-2.95c-0.067-0.133-0.101-0.365-0.101-0.699c-0.067-0.266-0.1-0.516-0.1-0.75
		c0-0.233-0.067-0.451-0.2-0.65c-0.334-1.066-0.584-2.133-0.75-3.2c-0.167-1.065-0.385-2.133-0.65-3.2
		c-0.066-0.4-0.133-0.783-0.2-1.15c-0.065-0.365-0.1-0.75-0.1-1.149c-0.2-1.065-0.3-2.133-0.3-3.2c-0.065-1.333-0.166-2.633-0.3-3.9
		c-0.133-1.266-0.2-2.565-0.2-3.9c0-0.533-0.033-1.016-0.1-1.45c-0.065-0.433-0.1-0.883-0.1-1.35v-4c0-0.866-0.033-1.716-0.1-2.55
		c-0.066-0.833-0.166-1.65-0.3-2.45C115.434,38.728,115.434,37.894,115.5,37.094z M144.399,42.094c-0.399,0.134-0.6,0.334-0.6,0.6
		c0,0.6-0.135,1.067-0.4,1.4c-0.334,0.534-0.55,1.084-0.649,1.65c-0.101,0.567-0.117,1.184-0.051,1.85
		c0.133,0.534,0.2,1.084,0.2,1.65c0,0.567,0,1.117,0,1.65v1.9v0.6c0.065,0.2,0.233,0.3,0.5,0.3c0.065-0.133,0.166-0.4,0.3-0.8
		c0.133-0.333,0.216-0.633,0.25-0.9c0.033-0.266,0.116-0.566,0.25-0.9c0.066-0.133,0.101-0.283,0.101-0.45
		c0-0.166,0.032-0.315,0.1-0.45c0-0.333,0.016-0.7,0.05-1.1c0.033-0.4,0.051-0.766,0.051-1.1c0.065-0.466,0.115-0.916,0.149-1.35
		c0.033-0.433,0.116-0.883,0.25-1.35C145.232,44.228,145.065,43.161,144.399,42.094z"/>
	<path fill="#A88A40" d="M165.698,15.793c0.333-0.133,0.616-0.233,0.851-0.3c0.232-0.066,0.482-0.1,0.75-0.1
		c1.933,0,3.5,0.7,4.699,2.1c0.601,0.734,1.016,1.484,1.25,2.25c0.233,0.767,0.416,1.584,0.551,2.45
		c0.065,0.734,0.183,1.417,0.35,2.05c0.166,0.634,0.315,1.317,0.45,2.05c0.133,0.4,0.2,0.7,0.2,0.9c0.133,1.467,0.365,2.9,0.699,4.3
		c0.333,1.4,0.566,2.834,0.7,4.3c0.065,0.734,0.101,1.435,0.101,2.1c0,0.667,0.032,1.367,0.1,2.1v2.2c0.065,0,0.115,0.018,0.15,0.05
		c0.032,0.034,0.082,0.05,0.149,0.05l0.601-1.2c0.332-0.733,0.633-1.466,0.899-2.2c0.266-0.733,0.565-1.466,0.9-2.2
		c0.933-2.065,1.982-4.05,3.149-5.95c1.166-1.9,2.416-3.783,3.75-5.65c1.2-1.8,2.601-3.5,4.2-5.1c1.133-1.133,2.366-2.05,3.7-2.75
		c1.333-0.7,2.8-1.183,4.4-1.45c0.6-0.133,1.199-0.166,1.8-0.1c0.6,0.067,1.232,0.1,1.899,0.1c0.733,0,1.45,0.117,2.15,0.35
		c0.7,0.234,1.383,0.517,2.05,0.85c1.533,0.8,2.666,2.067,3.4,3.8c0.532,1.2,0.966,2.417,1.3,3.65c0.333,1.234,0.633,2.484,0.9,3.75
		c0.199,1.135,0.3,2.268,0.3,3.4c0,3.8-0.468,7.667-1.4,11.6c-0.534,2.268-0.984,4.535-1.35,6.8c-0.367,2.267-0.817,4.567-1.351,6.9
		c-0.199,0.935-0.434,1.85-0.699,2.75c-0.268,0.9-0.535,1.817-0.801,2.75c-0.066,0.267-0.117,0.5-0.149,0.7
		c-0.034,0.199-0.085,0.467-0.15,0.8c0.2-0.133,0.366-0.216,0.5-0.25c0.133-0.032,0.266-0.083,0.4-0.149
		c1.665-1.133,3.565-2.066,5.7-2.801c0.6-0.2,1.149-0.465,1.649-0.8c0.5-0.333,1.016-0.633,1.55-0.9
		c0.533-0.333,1.066-0.616,1.601-0.85c0.532-0.233,1.065-0.483,1.6-0.75c0.4-0.2,0.9-0.3,1.5-0.3c0.533-0.066,0.9,0.2,1.101,0.8
		c0.133,0.334,0.115,0.584-0.051,0.75c-0.167,0.167-0.35,0.284-0.55,0.35c-0.935,0.334-1.767,0.75-2.5,1.25
		c-0.734,0.5-1.467,1.017-2.2,1.549c-0.334,0.201-1.1,0.668-2.3,1.4c-1.2,0.734-2.484,1.484-3.85,2.25
		c-1.367,0.768-2.635,1.484-3.8,2.15c-1.168,0.667-1.851,1.066-2.051,1.199c-0.134,0.068-0.3,0.268-0.5,0.601
		c-0.334,0.534-0.634,1.017-0.899,1.45c-0.268,0.434-0.534,0.917-0.8,1.449c-0.335,0.601-0.617,1.218-0.851,1.851
		c-0.234,0.634-0.484,1.25-0.75,1.851c-0.134,0.267-0.25,0.517-0.35,0.75c-0.101,0.234-0.218,0.449-0.351,0.649
		c-0.334,0.534-0.617,1.034-0.85,1.5c-0.234,0.468-0.518,0.968-0.85,1.5c-0.268,0.335-0.551,0.667-0.851,1
		c-0.3,0.335-0.617,0.667-0.95,1c-0.534,0.667-1.199,1.267-2,1.8c-0.6,0.467-1.199,0.935-1.8,1.4c-0.6,0.467-1.267,0.867-2,1.199
		c-0.734,0.335-1.45,0.601-2.149,0.801c-0.7,0.199-1.45,0.232-2.25,0.1c-1.2-0.332-1.935-0.965-2.2-1.9
		c-0.135-0.732-0.317-1.449-0.55-2.149c-0.234-0.7-0.45-1.415-0.65-2.149c-0.135-0.601-0.135-1.166,0-1.701
		c0.133-0.532,0.365-1.064,0.7-1.6c0.532-0.933,1.133-1.766,1.8-2.5c0.666-0.732,1.365-1.465,2.1-2.199
		c0.934-0.934,1.95-1.717,3.051-2.351c1.1-0.633,2.25-1.183,3.449-1.649c0.533-0.201,0.9-0.533,1.101-1
		c0.466-1.467,0.933-2.9,1.399-4.301c0.466-1.4,0.966-2.8,1.5-4.2c0.666-1.666,1.166-3.333,1.5-5c0.333-1.666,0.7-3.366,1.101-5.1
		c0.2-0.933,0.365-1.833,0.5-2.7c0.133-0.865,0.266-1.732,0.399-2.6c0-0.333-0.034-0.566-0.1-0.7c-0.334-0.933-0.435-1.9-0.3-2.9
		c0.133-1,0.266-2,0.399-3c0.066-0.8,0.101-1.583,0.101-2.35c0-0.766-0.067-1.55-0.2-2.35c-0.135-0.733-0.217-1.5-0.25-2.3
		c-0.034-0.8-0.117-1.566-0.25-2.3c-0.067-0.533-0.135-1.065-0.2-1.6c-0.067-0.533-0.134-1.066-0.2-1.6
		c-0.066-0.4-0.117-0.783-0.149-1.15c-0.034-0.366-0.117-0.75-0.25-1.15c-0.135-0.4-0.234-0.815-0.3-1.25
		c-0.067-0.433-0.168-0.85-0.301-1.25c-0.267-0.732-0.767-0.965-1.5-0.7c-0.534,0.267-1.084,0.517-1.649,0.75
		c-0.567,0.234-1.117,0.517-1.65,0.85c-0.6,0.4-1.2,0.834-1.8,1.3c-0.6,0.467-1.1,1.034-1.5,1.7c-0.334,0.467-0.685,0.884-1.05,1.25
		c-0.367,0.367-0.718,0.784-1.05,1.25c-0.535,0.6-1.051,1.217-1.551,1.85c-0.5,0.635-0.984,1.285-1.449,1.95
		c-0.4,0.667-0.785,1.334-1.15,2c-0.367,0.667-0.717,1.334-1.05,2c-0.601,1.334-1.2,2.634-1.8,3.9c-0.601,1.267-1.168,2.535-1.7,3.8
		c-0.268,0.6-0.484,1.217-0.65,1.85c-0.167,0.635-0.384,1.285-0.649,1.95c-0.335,0.935-0.65,1.834-0.95,2.7
		c-0.3,0.867-0.617,1.767-0.95,2.7c-0.2,0.4-0.3,0.834-0.3,1.3c0,0.734,0,1.467,0,2.2c0,0.734-0.034,1.467-0.101,2.2
		c0,0.267-0.017,0.517-0.05,0.75c-0.034,0.234-0.084,0.517-0.149,0.85c-0.135,0.534-0.25,1.1-0.351,1.7
		c-0.1,0.6-0.217,1.201-0.35,1.8c-0.067,0.268-0.135,0.518-0.2,0.75c-0.067,0.234-0.1,0.484-0.1,0.75
		c-0.135,0.534-0.234,1.1-0.301,1.699c-0.066,0.601-0.134,1.168-0.199,1.701c-0.067,0.934-0.117,1.867-0.15,2.799
		c-0.034,0.936-0.084,1.867-0.15,2.801c-0.066,0.6-0.149,1.184-0.25,1.75c-0.1,0.566-0.184,1.117-0.25,1.65
		c0,0.666,0.033,1.166,0.101,1.5c0.065,0.533,0.115,1.033,0.149,1.5c0.033,0.467-0.117,0.967-0.449,1.5
		c0,0.066-0.035,0.134-0.101,0.199c-0.067,0.801-0.134,1.584-0.2,2.35c-0.066,0.768-0.167,1.518-0.3,2.25
		c-0.067,0.4-0.1,0.801-0.1,1.201c0,0.399-0.067,0.766-0.2,1.1c-0.2,1.065-0.385,2.1-0.55,3.1c-0.167,1-0.385,2.033-0.65,3.1
		c-0.134,0.666-0.3,1.334-0.5,2s-0.367,1.334-0.5,2c-0.2,0.866-0.399,1.733-0.6,2.601c-0.2,0.866-0.435,1.766-0.7,2.7
		c-0.135,0.666-0.4,1.232-0.8,1.699c-0.4,0.467-0.835,0.9-1.3,1.301c-0.335,0.332-0.7,0.465-1.101,0.4
		c-0.399-0.068-0.767-0.201-1.1-0.4c-1.734-1-2.7-2.467-2.9-4.4c-0.133-1-0.2-2-0.2-3s0-1.967,0-2.9
		c-0.065-1.334-0.1-2.634-0.1-3.899c0-1.267,0-2.567,0-3.899c-0.065-1.601-0.133-3.201-0.2-4.801c-0.065-1.6-0.032-3.199,0.101-4.8
		c0.134-0.933,0.184-1.883,0.149-2.851c-0.032-0.965-0.05-1.949-0.05-2.949c0-1.6,0.084-3.2,0.25-4.801
		c0.167-1.6,0.35-3.165,0.55-4.699c0.2-1.934,0.4-3.883,0.601-5.85c0.199-1.966,0.332-3.916,0.399-5.85
		c0.065-2.333,0.183-4.666,0.351-7c0.165-2.333,0.315-4.666,0.449-7c0.066-0.933,0.116-1.833,0.15-2.7
		c0.033-0.865,0.115-1.766,0.25-2.7c0.133-1.2,0.266-2.4,0.4-3.6c0.133-1.2,0.266-2.4,0.399-3.6l0.601-4.5
		C166.998,19.061,166.631,17.394,165.698,15.793z M186.299,82.193c0.133,0.067,0.266,0.1,0.399,0.1
		c0.933-0.465,1.733-1.049,2.4-1.75c0.665-0.699,1.266-1.449,1.8-2.25c0.266-0.399,0.1-0.766-0.5-1.1
		C188.731,78.394,187.364,80.061,186.299,82.193z"/>
</g>
</svg>
